<svg width="75" height="66" viewBox="0 0 75 66" fill="none" xmlns="http://www.w3.org/2000/svg">
<path fill-rule="evenodd" clip-rule="evenodd" d="M9.57874 16.8225C5.53276 17.3535 1.49426 18.8193 0.342535 23.1495C-0.756835 27.2852 1.32225 31.1666 4.83724 32.6175C4.88959 32.6399 5.15882 32.7521 5.17378 32.7521L5.55519 33.0363C4.41843 33.5598 4.08189 33.5972 3.08722 34.3376C-1.03355 37.4039 -1.18312 44.015 3.57334 47.2085C4.79237 48.0311 7.80629 48.9959 9.57874 49.1081C9.20481 47.6871 6.93128 45.6305 6.12358 44.4264C4.73254 42.3473 4.41095 40.0663 6.43768 38.6379C9.03279 36.8205 15.6739 37.8526 13.9463 45.3163C12.8021 50.2673 9.68344 54.9265 7.15564 58.8752C5.77208 61.0291 3.46864 63.4223 1.66627 65.5537C2.78059 65.7631 3.72291 65.0377 4.4633 64.5067C4.80732 64.2599 4.94194 64.23 5.30092 63.9084C6.96119 62.4351 8.01569 61.5152 9.46656 59.8699C9.6984 59.6082 9.84797 59.4287 10.0723 59.1669C11.0894 57.9778 12.1664 56.9607 13.3031 55.5023C13.7219 54.9564 14.1183 54.4927 14.5521 54.0141C15.4869 52.9671 17.3342 50.4841 18.0521 49.3025C20.5201 45.264 22.7413 39.9092 19.1365 35.6987C17.3865 33.6645 15.6814 33.7169 14.8288 32.9914C18.4036 31.5406 21.0436 29.5288 21.0062 24.6527C20.9838 21.2723 18.5382 16.9346 16.6312 14.519C14.5296 11.8566 10.4837 7.05527 8.25501 4.81166C7.61184 4.16849 6.99111 3.68985 6.3629 3.01677C5.89922 2.52317 5.06908 1.89496 4.42591 1.38641C3.76778 0.870376 2.8853 0.361824 1.69618 0.331909C1.83828 0.638536 1.73357 0.451569 1.91306 0.683408C1.92054 0.698366 2.13742 0.930206 2.1449 0.937685L3.57334 2.59796C3.96971 3.03172 4.0445 3.20373 4.54557 3.65246C4.80732 3.89177 5.23361 4.38537 5.48789 4.72939C6.64709 6.3074 7.70158 7.83305 8.81591 9.61299C10.5585 12.3951 13.1835 16.987 14.0061 20.7189C15.629 28.0929 8.786 29.1922 6.40029 27.2627C3.41628 24.8546 5.8693 21.4593 7.95586 19.3129C8.33727 18.9165 8.45693 18.6697 8.86078 18.1911C9.13002 17.8695 9.51891 17.3011 9.60118 16.815L9.57874 16.8225Z" fill="#0E74BB"/>
<path fill-rule="evenodd" clip-rule="evenodd" d="M64.4294 21.6611C64.6164 25.7145 64.4294 24.5404 64.1452 27.9282C64.0779 28.7733 64.0555 30.0672 64.3771 30.7776C64.8258 31.7573 66.0672 31.6526 66.6356 31.0319C67.5106 30.0746 67.0245 26.5222 67.1666 25.0115C67.2863 23.7177 69.1036 21.4143 69.8664 21.1226C70.2329 24.488 69.4252 30.8674 70.2628 31.7873C70.5919 32.1462 71.4893 32.3182 72.0652 32.049C73.1271 31.5479 72.8429 29.7231 72.813 28.4667C72.7682 26.7466 72.7981 21.2797 72.2746 20.0307C71.8558 19.0286 70.9359 18.2957 69.3953 18.6696C67.9967 19.0136 67.4134 19.8812 66.6955 20.4944C66.4487 20.27 65.7008 18.4901 63.8984 19.238C63.3899 19.4549 62.8514 19.8812 62.5896 20.1878C62.2531 20.5767 62.0362 21.16 61.6249 21.4292C61.5351 20.3374 61.6324 18.5574 60.3909 18.5724C59.2616 18.5873 59.1569 20.2401 59.127 21.3171C59.0597 23.9047 58.9774 26.9784 59.0821 29.5362C59.1719 31.6302 61.0116 31.1067 61.3407 30.8375C62.0586 30.2466 61.9016 28.534 62.0213 27.4646C62.2157 25.8043 63.4273 22.1547 64.4294 21.6536V21.6611Z" fill="#0E74BB"/>
<path fill-rule="evenodd" clip-rule="evenodd" d="M53.2635 20.7264C53.1289 22.626 53.3981 23.4785 52.5605 25.1538C51.9622 26.3504 50.975 27.689 49.741 26.141C48.1406 24.1516 49.7934 21.1078 53.271 20.7264H53.2635ZM53.5178 28.5715C53.7347 30.7329 55.8362 30.7628 56.2101 29.3942C56.3971 28.6912 56.1727 22.6334 56.0456 21.2648C55.8362 19.0212 53.0766 18.1387 50.6609 18.8567C48.2677 19.5672 45.9867 22.4166 46.8094 25.8792C47.3179 28.0106 49.225 29.6634 51.4537 29.4017C52.4633 29.282 52.7849 28.8482 53.5253 28.579L53.5178 28.5715Z" fill="#0E74BB"/>
<path fill-rule="evenodd" clip-rule="evenodd" d="M28.9797 38.7875C28.9722 40.6348 29.0321 41.592 28.3141 43.1476C27.7607 44.3367 26.6912 45.6156 25.547 44.1572C23.8942 42.0632 25.7489 39.1989 28.9872 38.7875H28.9797ZM29.1667 46.4756C29.8024 49.34 31.702 48.0686 31.9188 47.231C32.0983 46.528 31.8515 40.6348 31.7319 39.2886C31.6496 38.3912 31.4103 38.3837 31.0513 37.935C30.8569 37.6956 30.9092 37.6807 30.7671 37.5087C30.0417 36.6187 27.4541 36.5888 26.2275 37.0226C23.5128 37.9798 21.9198 41.1284 22.6527 43.9703C23.0641 45.5857 23.8643 46.3784 25.1132 46.9767C26.422 47.6049 28.4412 47.3357 29.1742 46.4831L29.1667 46.4756Z" fill="#0E74BB"/>
<path fill-rule="evenodd" clip-rule="evenodd" d="M69.7917 38.3461C70.031 41.0086 69.7992 44.0524 69.9338 46.7896C69.9712 47.4926 70.0161 48.0311 70.4573 48.3826C70.8761 48.7191 71.5567 48.749 72.0129 48.405C72.8654 47.7693 72.4167 45.8922 72.327 44.7479C72.155 42.5866 72.4317 34.2852 68.4455 36.626C67.922 36.9327 67.6453 37.2243 67.2788 37.6058C67.062 37.8301 66.9573 37.9199 66.7853 38.1741C66.3964 38.75 66.5908 38.6677 66.1944 38.8547C66.187 37.6506 66.3365 35.923 64.9156 35.953C64.1527 35.9679 64.1602 36.4839 64.048 37.2094C63.7788 38.9519 63.3525 46.4905 63.5545 47.3206C63.8237 48.405 65.5961 48.6742 65.8878 47.2608C66.4936 44.2768 65.0203 43.7383 68.468 39.1464C68.7821 38.7201 69.0289 38.2714 69.7992 38.3387L69.7917 38.3461Z" fill="#0E74BB"/>
<path fill-rule="evenodd" clip-rule="evenodd" d="M36.8099 34.3606C35.2095 34.2259 32.5695 34.1885 32.4349 35.8413C33.1977 37.2922 34.514 35.3552 36.4659 36.2003C36.7052 38.6833 35.7479 41.0316 36.3014 43.881C36.7277 46.0797 38.2084 47.7998 40.7587 47.7549C44.5579 47.6951 44.4008 43.7688 41.9628 44.5391C40.7288 44.928 39.8313 45.3991 39.1732 44.0829C38.3505 42.4376 38.7319 38.788 38.8292 36.9183C40.1828 37.1202 41.1999 37.3147 42.5311 36.9033C43.5931 36.5743 44.513 35.7666 44.1316 34.4727C42.4264 33.6725 41.9777 35.7441 39.1807 34.9589C39.1134 33.8296 39.6144 32.1992 38.2683 32.274C37.2586 32.3338 37.2661 33.6052 36.8099 34.3606Z" fill="#0E74BB"/>
<path fill-rule="evenodd" clip-rule="evenodd" d="M37.9922 21.5721C38.2764 20.398 39.8769 18.9695 40.4378 20.6074C40.0638 21.3253 38.9046 21.4674 37.9922 21.5721ZM38.6429 17.6084C35.7187 18.5806 33.4826 23.9429 34.9634 26.9867C37.1097 31.4066 44.1846 29.7837 43.4218 27.0989C42.8609 25.1245 40.004 27.6822 38.1194 26.8072C37.3117 26.4333 36.9003 25.7004 36.9751 24.5636C37.0275 23.7933 36.9901 23.5615 37.6557 23.4568C39.114 23.2324 43.9229 22.9332 42.9581 20.0689C42.5692 18.9022 40.6023 16.9503 38.6429 17.6009V17.6084Z" fill="#0E74BB"/>
<path fill-rule="evenodd" clip-rule="evenodd" d="M56.0608 36.6626C50.7734 37.9788 51.3492 44.934 53.3834 46.7738C53.9892 47.3197 54.9764 47.918 56.2029 47.8133C59.2916 47.5366 60.9968 43.6327 60.75 40.6039C60.4733 37.2011 57.3621 36.7149 57.5042 39.1754C57.579 40.5141 58.3044 40.8432 57.9006 42.5109C57.6613 43.4981 57.0929 44.6199 56.4572 45.0013C54.5202 46.1605 53.72 42.0173 54.9465 40.1551C55.485 39.3474 56.2852 38.809 56.9732 38.2556C58.0277 37.4105 57.6089 36.2812 56.0608 36.6626Z" fill="#0E74BB"/>
<path fill-rule="evenodd" clip-rule="evenodd" d="M26.1232 19.732C25.6745 19.0889 25.9063 18.1316 25.1285 17.8923C24.0815 17.5632 23.8796 18.6252 23.7674 19.4478C23.5281 21.2427 23.6477 25.9917 23.7599 28.1082C23.8123 29.1328 24.089 29.6937 25.1734 29.6712C27.0206 29.6338 26.5794 26.8742 26.8486 25.3785C28.1125 18.4008 32.3978 21.31 33.1233 19.8816C34.0357 18.1017 31.5752 17.2865 29.8925 17.6156C28.1873 17.9446 27.0206 18.9692 26.1157 19.732H26.1232Z" fill="#0E74BB"/>
<path fill-rule="evenodd" clip-rule="evenodd" d="M47.0638 37.5913C45.7625 38.1522 45.942 41.5849 45.8971 43.0956C45.8747 44.0229 45.7924 45.4813 45.957 46.3563C46.3907 48.6897 48.754 48.8018 48.6194 45.7206C48.567 44.4941 48.395 43.8659 48.4922 42.5048C48.5446 41.7419 49.0606 36.7237 47.0638 37.5913Z" fill="#0E74BB"/>
<path fill-rule="evenodd" clip-rule="evenodd" d="M46.6375 33.8138C44.9099 34.7636 46.0841 37.0671 47.8416 36.394C49.4794 35.7733 48.4623 32.8117 46.6375 33.8138Z" fill="#0E74BB"/>
<path d="M25.0253 56.5714C26.729 56.5714 27.69 55.5121 27.69 53.7648C27.69 52.0285 26.729 50.9801 25.1018 50.9801H23.2999V56.5714H25.0253ZM23.977 55.9708V51.5807H25.0581C26.3686 51.5807 27.0347 52.4107 27.0347 53.7648C27.0347 55.1299 26.3686 55.9708 24.9817 55.9708H23.977ZM28.7383 56.5714H29.3827V52.3779H28.7383V56.5714ZM29.066 51.679C29.3171 51.679 29.5246 51.4824 29.5246 51.2422C29.5246 51.0019 29.3171 50.8054 29.066 50.8054C28.8148 50.8054 28.6073 51.0019 28.6073 51.2422C28.6073 51.4824 28.8148 51.679 29.066 51.679ZM32.2555 58.2314C33.2602 58.2314 34.0683 57.7727 34.0683 56.6916V52.3779H33.4458V53.0441H33.3803C33.2383 52.8257 32.9762 52.3233 32.1572 52.3233C31.0979 52.3233 30.3662 53.1642 30.3662 54.4528C30.3662 55.7633 31.1306 56.5059 32.1463 56.5059C32.9653 56.5059 33.2274 56.0254 33.3694 55.7961H33.424V56.6479C33.424 57.3468 32.9325 57.6635 32.2555 57.6635C31.4938 57.6635 31.2262 57.2622 31.0542 57.0301L30.5409 57.3905C30.803 57.83 31.319 58.2314 32.2555 58.2314ZM32.2336 55.9271C31.4255 55.9271 31.0105 55.3156 31.0105 54.4419C31.0105 53.5901 31.4146 52.9021 32.2336 52.9021C33.0199 52.9021 33.4349 53.5355 33.4349 54.4419C33.4349 55.3702 33.009 55.9271 32.2336 55.9271ZM35.2477 56.5714H35.892V52.3779H35.2477V56.5714ZM35.5753 51.679C35.8265 51.679 36.034 51.4824 36.034 51.2422C36.034 51.0019 35.8265 50.8054 35.5753 50.8054C35.3242 50.8054 35.1167 51.0019 35.1167 51.2422C35.1167 51.4824 35.3242 51.679 35.5753 51.679ZM38.8959 52.3779H38.0004V51.3732H37.3561V52.3779H36.7227V52.924H37.3561V55.5449C37.3561 56.2766 37.9458 56.626 38.4918 56.626C38.7321 56.626 38.885 56.5824 38.9723 56.5496L38.8413 55.9708C38.7867 55.9817 38.6993 56.0036 38.5573 56.0036C38.2734 56.0036 38.0004 55.9162 38.0004 55.3702V52.924H38.8959V52.3779ZM41.0991 56.6697C41.8308 56.6697 42.213 56.2766 42.3441 56.0036H42.3768V56.5714H43.0211V53.8085C43.0211 52.4762 42.0055 52.3233 41.4704 52.3233C40.837 52.3233 40.1163 52.5417 39.7886 53.3062L40.4002 53.5246C40.5422 53.2188 40.878 52.8912 41.4923 52.8912C42.0847 52.8912 42.3768 53.2052 42.3768 53.743V53.7648C42.3768 54.0761 42.0601 54.0488 41.2957 54.1471C40.5176 54.2481 39.6685 54.4201 39.6685 55.3811C39.6685 56.2001 40.3019 56.6697 41.0991 56.6697ZM41.1974 56.0909C40.6841 56.0909 40.3128 55.8616 40.3128 55.4139C40.3128 54.9224 40.7606 54.7695 41.2629 54.704C41.5359 54.6713 42.2676 54.5948 42.3768 54.4638V55.0535C42.3768 55.5777 41.9618 56.0909 41.1974 56.0909ZM44.8415 50.9801H44.1972V56.5714H44.8415V50.9801ZM48.2712 56.5714H51.5474V55.9708H48.9483V50.9801H48.2712V56.5714ZM52.5084 56.5714H53.1527V52.3779H52.5084V56.5714ZM52.836 51.679C53.0872 51.679 53.2947 51.4824 53.2947 51.2422C53.2947 51.0019 53.0872 50.8054 52.836 50.8054C52.5849 50.8054 52.3774 51.0019 52.3774 51.2422C52.3774 51.4824 52.5849 51.679 52.836 51.679ZM54.3329 56.5714H54.9772V53.9505C54.9772 53.3362 55.4249 52.9021 55.9273 52.9021C56.416 52.9021 56.7572 53.2215 56.7572 53.6993V56.5714H57.4125V53.8413C57.4125 53.3007 57.751 52.9021 58.3407 52.9021C58.7994 52.9021 59.1925 53.1451 59.1925 53.7648V56.5714H59.8368V53.7648C59.8368 52.7793 59.3072 52.3233 58.5591 52.3233C57.9585 52.3233 57.5189 52.5991 57.3033 53.0332H57.2596C57.0521 52.5854 56.6862 52.3233 56.1348 52.3233C55.5887 52.3233 55.1847 52.5854 55.0099 53.0332H54.9553V52.3779H54.3329V56.5714ZM61.0149 56.5714H61.6592V52.3779H61.0149V56.5714ZM61.3425 51.679C61.5937 51.679 61.8012 51.4824 61.8012 51.2422C61.8012 51.0019 61.5937 50.8054 61.3425 50.8054C61.0913 50.8054 60.8839 51.0019 60.8839 51.2422C60.8839 51.4824 61.0913 51.679 61.3425 51.679ZM64.6631 52.3779H63.7676V51.3732H63.1233V52.3779H62.4899V52.924H63.1233V55.5449C63.1233 56.2766 63.713 56.626 64.259 56.626C64.4993 56.626 64.6521 56.5824 64.7395 56.5496L64.6085 55.9708C64.5539 55.9817 64.4665 56.0036 64.3245 56.0036C64.0406 56.0036 63.7676 55.9162 63.7676 55.3702V52.924H64.6631V52.3779ZM67.3454 56.6588C68.1973 56.6588 68.8197 56.2329 69.0163 55.5995L68.3938 55.4248C68.23 55.8616 67.8505 56.08 67.3454 56.08C66.5892 56.08 66.0677 55.5913 66.0377 54.6931H69.0818V54.4201C69.0818 52.8584 68.1536 52.3233 67.2799 52.3233C66.1442 52.3233 65.3907 53.2188 65.3907 54.5074C65.3907 55.7961 66.1333 56.6588 67.3454 56.6588ZM66.0377 54.1361C66.0814 53.4836 66.5428 52.9021 67.2799 52.9021C67.9788 52.9021 68.4266 53.4263 68.4266 54.1361H66.0377ZM71.6454 56.6588C72.4536 56.6588 72.7266 56.1565 72.8685 55.9271H72.945V56.5714H73.5675V50.9801H72.9231V53.0441H72.8685C72.7266 52.8257 72.4754 52.3233 71.6564 52.3233C70.5971 52.3233 69.8654 53.1642 69.8654 54.4856C69.8654 55.8179 70.5971 56.6588 71.6454 56.6588ZM71.7328 56.08C70.9247 56.08 70.5097 55.3702 70.5097 54.4747C70.5097 53.5901 70.9138 52.9021 71.7328 52.9021C72.5191 52.9021 72.9341 53.5355 72.9341 54.4747C72.9341 55.4248 72.5082 56.08 71.7328 56.08Z" fill="#0E74BB"/>
</svg>
