<svg width="389" height="432" viewBox="0 0 389 432" fill="none" xmlns="http://www.w3.org/2000/svg">
<g clip-path="url(#clip0)">
<rect y="120.828" width="215.487" height="338.242" rx="18.2834" transform="rotate(-34 0 120.828)" fill="url(#paint0_linear)"/>
<g clip-path="url(#clip1)">
<path fill-rule="evenodd" clip-rule="evenodd" d="M132.975 197.63C127.963 202.06 123.818 207.755 126.222 214.696C128.519 221.325 134.903 224.694 141.01 223.444C141.102 223.426 141.571 223.332 141.591 223.318L142.37 223.355C141.305 225.108 140.882 225.468 140.209 227.386C137.419 235.331 143.276 244.453 152.669 244.433C155.079 244.434 160.06 242.982 162.572 241.509C160.761 239.921 155.786 239.21 153.584 238.314C149.788 236.763 147.259 233.958 148.705 230.159C150.566 225.31 160.538 220.624 165.032 232.352C168.016 240.13 168.048 249.321 168.233 257.006C168.327 261.201 167.39 266.565 166.894 271.115C168.601 270.378 169.216 268.528 169.736 267.127C169.977 266.477 170.133 266.313 170.326 265.546C171.232 262.022 171.822 259.805 172.285 256.239C172.36 255.671 172.399 255.29 172.464 254.728C172.756 252.18 173.288 249.81 173.496 246.786C173.564 245.66 173.678 244.666 173.829 243.618C174.14 241.338 174.374 236.27 174.267 234.006C173.919 226.255 172.028 216.941 163.269 214.523C159.026 213.362 156.757 214.997 154.933 214.792C158.461 209.543 160.205 204.389 155.684 197.796C152.555 193.222 145.254 189.569 140.448 188.034C135.151 186.342 125.251 183.525 120.165 182.519C118.701 182.235 117.419 182.153 115.948 181.814C114.865 181.568 113.161 181.476 111.821 181.374C110.453 181.276 108.788 181.394 107.144 182.443C107.618 182.73 107.304 182.572 107.761 182.722C107.785 182.736 108.292 182.852 108.309 182.855L111.773 183.802C112.709 184.028 112.968 184.194 114.061 184.344C114.636 184.43 115.668 184.71 116.329 184.944C119.351 186.026 122.183 187.133 125.329 188.53C130.247 190.714 138.025 194.549 142.564 198.867C151.53 207.401 143.237 215.168 138.226 214.733C131.963 214.196 132.184 207.332 133.052 202.502C133.207 201.614 133.143 201.169 133.254 200.148C133.325 199.464 133.332 198.335 132.998 197.599L132.975 197.63Z" fill="white"/>
<path fill-rule="evenodd" clip-rule="evenodd" d="M211.959 153.922C215.929 159.26 214.598 157.836 217.318 162.701C218.001 163.911 219.157 165.69 220.245 166.361C221.753 167.281 223.344 166.001 223.548 164.636C223.859 162.533 219.942 158.15 218.75 155.967C217.727 154.099 218.085 149.302 218.855 148.206C222.438 152.444 227.188 161.855 229.17 162.337C229.946 162.524 231.324 161.935 231.86 161.041C232.844 159.386 230.784 157.167 229.592 155.487C227.954 153.19 222.983 145.732 221.127 144.515C219.639 143.537 217.717 143.384 215.966 145.304C214.38 147.054 214.383 148.768 213.969 150.259C213.428 150.181 210.78 148.447 209.016 151.116C208.523 151.877 208.182 152.95 208.108 153.607C208.007 154.444 208.247 155.435 207.935 156.178C206.812 154.777 205.312 152.268 203.638 153.427C202.117 154.482 203.49 156.825 204.437 158.316C206.717 161.894 209.423 166.147 211.911 169.528C213.952 172.291 215.973 169.893 216.173 169.226C216.607 167.765 214.824 165.581 214.006 164.018C212.748 161.583 211.049 155.512 211.952 153.912L211.959 153.922Z" fill="white"/>
<path fill-rule="evenodd" clip-rule="evenodd" d="M195.926 162.888C197.485 165.593 198.632 166.505 199.029 169.55C199.313 171.725 199.199 174.449 196.102 173.476C192.104 172.24 191.559 166.588 195.936 162.881L195.926 162.888ZM203.464 173.318C205.74 176.056 208.623 174.17 207.877 171.968C207.487 170.841 201.628 162.813 200.201 161.07C197.86 158.212 193.3 159.543 190.675 162.733C188.074 165.893 187.586 171.856 191.878 175.808C194.523 178.239 198.63 178.737 201.419 176.338C202.682 175.25 202.721 174.366 203.481 173.321L203.464 173.318Z" fill="white"/>
<path fill-rule="evenodd" clip-rule="evenodd" d="M179.479 209.697C181.162 212.215 182.121 213.461 182.571 216.233C182.909 218.357 182.628 221.075 179.736 220.142C175.57 218.811 175.465 213.218 179.489 209.69L179.479 209.697ZM186.781 219.975C190.271 223.285 191.687 219.816 191.214 218.478C190.813 217.358 185.076 209.575 183.679 207.855C182.744 206.711 182.412 206.92 181.513 206.639C181.029 206.492 181.087 206.424 180.736 206.32C178.934 205.776 175.39 208.107 174.12 209.821C171.308 213.611 172.03 219.351 175.631 222.541C177.671 224.36 179.485 224.704 181.731 224.372C184.086 224.026 186.583 221.809 186.798 219.978L186.781 219.975Z" fill="white"/>
<path fill-rule="evenodd" clip-rule="evenodd" d="M234.542 171.684C237.308 175.083 239.784 179.432 242.476 183.029C243.171 183.95 243.726 184.641 244.648 184.714C245.525 184.788 246.478 184.204 246.783 183.319C247.358 181.673 245.028 179.533 243.857 178.06C241.642 175.28 234.408 163.744 231.136 170.58C230.705 171.477 230.597 172.127 230.448 172.981C230.359 173.485 230.299 173.703 230.299 174.206C230.298 175.345 230.487 175.055 230.119 175.672C229.006 174.043 227.625 171.558 225.721 172.901C224.698 173.621 225.181 174.315 225.694 175.404C226.926 178.019 233.257 188.656 234.292 189.599C235.652 190.826 238.308 189.567 237.409 187.378C235.497 182.767 233.001 183.386 233.477 173.985C233.513 173.117 233.437 172.281 234.546 171.667L234.542 171.684Z" fill="white"/>
<path fill-rule="evenodd" clip-rule="evenodd" d="M186.063 196.502C183.764 197.786 180.142 200.156 181.474 202.526C183.841 203.798 183.854 199.959 187.282 199.318C189.883 202.473 190.735 206.542 194.099 209.908C196.694 212.505 200.284 213.486 203.709 211.087C208.817 207.523 205.004 202.33 202.397 205.612C201.076 207.272 200.289 208.735 198.187 207.549C195.561 206.067 192.734 200.758 191.152 198.127C193.177 197.161 194.737 196.493 196.17 194.713C197.311 193.292 197.821 191.351 196.117 189.943C193.065 190.418 194.355 193.645 189.833 195.142C188.707 193.669 187.893 190.994 186.132 192.329C184.815 193.336 185.99 195.057 186.063 196.502Z" fill="white"/>
<path fill-rule="evenodd" clip-rule="evenodd" d="M175.946 178.037C175.256 176.181 176.122 172.772 178.385 174.484C178.535 175.803 177.09 177.059 175.946 178.037ZM173.197 172.054C170.114 176.056 171.99 185.394 176.793 188.173C183.762 192.213 191.89 183.521 188.392 180.571C185.82 178.402 184.282 184.497 180.918 185.036C179.477 185.268 178.246 184.649 177.306 183.035C176.671 181.941 176.408 181.66 177.216 180.907C178.993 179.265 185.254 174.45 181.317 171.442C179.719 170.213 175.256 169.363 173.19 172.044L173.197 172.054Z" fill="white"/>
<path fill-rule="evenodd" clip-rule="evenodd" d="M214.337 181.983C208.358 188.619 215.516 197.544 219.968 198.18C221.291 198.366 223.182 198.275 224.753 197.008C228.697 193.8 227.435 186.931 224.323 183.041C220.828 178.67 216.154 180.861 218.603 184.075C219.931 185.826 221.219 185.608 222.199 188.245C222.779 189.806 223.035 191.852 222.52 192.953C220.95 196.304 216.065 191.407 216.024 187.751C216.016 186.16 216.61 184.695 217.038 183.312C217.696 181.196 216.092 180.045 214.337 181.983Z" fill="white"/>
<path fill-rule="evenodd" clip-rule="evenodd" d="M158.128 186.417C156.928 185.954 156.366 184.441 155.089 184.829C153.365 185.341 154.064 186.97 154.665 188.191C155.986 190.849 160.502 197.194 162.595 199.968C163.605 201.312 164.495 201.821 165.948 200.796C168.425 199.052 165.295 195.706 164.29 193.426C159.611 182.784 168.102 182.81 167.779 180.203C167.387 176.948 163.296 178.095 161.31 180.085C159.295 182.096 158.648 184.558 158.118 186.424L158.128 186.417Z" fill="white"/>
<path fill-rule="evenodd" clip-rule="evenodd" d="M202.961 191.493C201.706 193.448 205.097 197.949 206.421 200.043C207.241 201.324 208.466 203.382 209.491 204.42C212.22 207.194 215.535 205.18 212.527 201.116C211.332 199.497 210.522 198.801 209.406 196.861C208.778 195.777 204.879 188.483 202.961 191.493Z" fill="white"/>
<path fill-rule="evenodd" clip-rule="evenodd" d="M198.918 186.75C197.441 189.624 201.148 191.679 202.92 189.153C204.577 186.808 200.48 183.715 198.918 186.75Z" fill="white"/>
</g>
<rect x="110.426" y="81.3235" width="35.7358" height="51.526" rx="8.65811" transform="rotate(-34 110.426 81.3235)" fill="#E5EBF2" stroke="#044FB7" stroke-opacity="0.3095" stroke-width="1.12443"/>
<rect opacity="0.3" x="116.555" y="82.561" width="7.52332" height="18.4476" rx="3.71062" transform="rotate(-34 116.555 82.561)" fill="#E5EBF2" stroke="#044FB7" stroke-width="0.562215"/>
<rect opacity="0.3" x="130.072" y="102.601" width="7.52332" height="18.4476" rx="3.71062" transform="rotate(-34 130.072 102.601)" fill="#E5EBF2" stroke="#044FB7" stroke-width="0.562215"/>
<rect opacity="0.3" x="124.871" y="76.9517" width="7.52332" height="18.4476" rx="3.71062" transform="rotate(-34 124.871 76.9517)" fill="#E5EBF2" stroke="#044FB7" stroke-width="0.562215"/>
<rect opacity="0.3" x="138.388" y="96.9918" width="7.52332" height="18.4476" rx="3.71062" transform="rotate(-34 138.388 96.9918)" fill="#E5EBF2" stroke="#044FB7" stroke-width="0.562215"/>
<rect opacity="0.3" x="133.187" y="71.3424" width="7.52332" height="18.4476" rx="3.71062" transform="rotate(-34 133.187 71.3424)" fill="#E5EBF2" stroke="#044FB7" stroke-width="0.562215"/>
<rect opacity="0.3" x="146.704" y="91.3824" width="7.52332" height="18.4476" rx="3.71062" transform="rotate(-34 146.704 91.3824)" fill="#E5EBF2" stroke="#044FB7" stroke-width="0.562215"/>
<path d="M190.374 348.87L196.02 357.242L194.667 358.155L194.141 357.377C194.101 357.82 193.956 358.23 193.706 358.606C193.464 358.977 193.136 359.302 192.723 359.581C192.144 359.972 191.534 360.197 190.896 360.256C190.264 360.309 189.66 360.192 189.082 359.903C188.499 359.607 188.002 359.154 187.591 358.545C187.18 357.935 186.949 357.309 186.898 356.665C186.846 356.021 186.964 355.416 187.25 354.851C187.544 354.281 187.981 353.8 188.56 353.409C188.958 353.141 189.369 352.962 189.791 352.874C190.214 352.787 190.633 352.799 191.048 352.913L188.963 349.821L190.374 348.87ZM192.078 358.26C192.416 358.032 192.67 357.751 192.839 357.418C193.004 357.077 193.068 356.711 193.033 356.318C192.999 355.926 192.854 355.542 192.601 355.166C192.347 354.789 192.045 354.512 191.694 354.332C191.343 354.153 190.982 354.08 190.609 354.112C190.232 354.137 189.874 354.263 189.536 354.491C189.197 354.72 188.946 355.004 188.782 355.345C188.612 355.678 188.545 356.041 188.58 356.433C188.615 356.825 188.759 357.21 189.013 357.586C189.266 357.962 189.569 358.239 189.919 358.419C190.27 358.598 190.634 358.675 191.011 358.651C191.384 358.618 191.739 358.488 192.078 358.26ZM201.144 349.452C201.21 349.55 201.297 349.694 201.403 349.885L196.676 353.074C197.058 353.461 197.511 353.67 198.034 353.7C198.56 353.718 199.083 353.551 199.602 353.201C200.264 352.755 200.662 352.169 200.796 351.443L202.138 351.802C202.086 352.308 201.908 352.783 201.606 353.228C201.304 353.673 200.894 354.07 200.375 354.42C199.713 354.866 199.041 355.128 198.359 355.205C197.678 355.281 197.041 355.18 196.448 354.902C195.857 354.61 195.362 354.168 194.961 353.573C194.565 352.987 194.342 352.371 194.29 351.728C194.242 351.071 194.365 350.451 194.662 349.868C194.958 349.285 195.403 348.794 195.997 348.393C196.584 347.997 197.196 347.776 197.832 347.73C198.471 347.671 199.078 347.792 199.653 348.094C200.231 348.382 200.728 348.835 201.144 349.452ZM196.758 349.521C196.307 349.825 196.015 350.22 195.882 350.704C195.751 351.175 195.801 351.655 196.033 352.145L199.452 349.839C199.097 349.443 198.674 349.214 198.183 349.151C197.692 349.088 197.217 349.212 196.758 349.521ZM203.362 343.425C203.949 343.029 204.558 342.805 205.189 342.751C205.828 342.692 206.437 342.807 207.014 343.096C207.592 343.385 208.087 343.834 208.498 344.443C208.909 345.052 209.142 345.683 209.199 346.334C209.25 346.978 209.129 347.585 208.835 348.155C208.548 348.721 208.112 349.201 207.525 349.597C207.111 349.876 206.683 350.061 206.241 350.151C205.806 350.237 205.376 350.215 204.95 350.086L205.475 350.865L204.132 351.771L198.485 343.399L199.896 342.447L201.973 345.528C202.036 345.102 202.184 344.712 202.416 344.359C202.656 344 202.971 343.689 203.362 343.425ZM206.553 348.496C207.072 348.146 207.38 347.686 207.478 347.117C207.583 346.543 207.445 345.974 207.065 345.409C206.684 344.845 206.208 344.504 205.636 344.387C205.072 344.264 204.53 344.378 204.011 344.728C203.672 344.956 203.421 345.24 203.257 345.581C203.088 345.914 203.02 346.277 203.055 346.669C203.09 347.062 203.234 347.446 203.488 347.822C203.742 348.198 204.044 348.476 204.395 348.655C204.745 348.834 205.109 348.912 205.487 348.887C205.859 348.855 206.214 348.724 206.553 348.496ZM207.427 340.782L208.837 339.831L212.901 345.856L211.491 346.807L207.427 340.782ZM207.468 339.31C207.212 339.482 206.945 339.548 206.665 339.506C206.381 339.458 206.157 339.313 205.995 339.072C205.832 338.831 205.784 338.574 205.851 338.299C205.912 338.017 206.071 337.79 206.327 337.617C206.582 337.445 206.85 337.379 207.129 337.42C207.404 337.454 207.62 337.587 207.777 337.821C207.945 338.069 208 338.338 207.944 338.627C207.89 338.905 207.731 339.132 207.468 339.31ZM217.778 342.091C217.703 342.338 217.569 342.576 217.374 342.806C217.186 343.031 216.961 343.232 216.698 343.41C216.036 343.857 215.407 344.029 214.813 343.926C214.219 343.824 213.698 343.441 213.252 342.779L211.296 339.88L210.303 340.549L209.542 339.421L210.535 338.751L209.606 337.375L211.017 336.424L211.945 337.8L213.558 336.712L214.32 337.84L212.706 338.928L214.639 341.794C214.837 342.088 215.061 342.265 215.31 342.327C215.555 342.381 215.812 342.316 216.083 342.134C216.399 341.921 216.606 341.66 216.705 341.353L217.778 342.091Z" fill="white"/>
</g>
<defs>
<linearGradient id="paint0_linear" x1="-34.2406" y1="382.681" x2="139.28" y2="430.884" gradientUnits="userSpaceOnUse">
<stop stop-color="#0086FF"/>
<stop offset="1" stop-color="#005CFF"/>
</linearGradient>
<clipPath id="clip0">
<rect width="216.077" height="374.81" fill="white" transform="translate(0 120.828) rotate(-34)"/>
</clipPath>
<clipPath id="clip1">
<rect width="122.954" height="110.133" fill="white" transform="translate(104 182.755) rotate(-34)"/>
</clipPath>
</defs>
</svg>
