<svg width="401" height="480" viewBox="0 0 401 480" fill="none" xmlns="http://www.w3.org/2000/svg">
<rect width="401" height="480" rx="30" fill="black" fill-opacity="0.3"/>
<path d="M67.7514 259.48C64.1994 259.48 61.2394 258.296 58.8714 255.928C56.5354 253.56 55.3674 250.728 55.3674 247.432C55.3674 243.848 56.5354 240.968 58.8714 238.792C61.2394 236.616 64.1034 235.512 67.4634 235.48C70.2154 235.448 72.5514 236.088 74.4714 237.4C76.4234 238.712 77.3994 240.312 77.3994 242.2C77.3994 242.904 77.1594 243.496 76.6794 243.976C76.1994 244.424 75.4474 244.632 74.4234 244.6C73.6554 244.568 72.9834 244.296 72.4074 243.784C71.8314 243.272 71.3514 242.68 70.9674 242.008C70.6154 241.336 70.2474 240.664 69.8634 239.992C69.4794 239.32 68.9994 238.76 68.4234 238.312C67.8474 237.832 67.1754 237.592 66.4074 237.592C65.0634 237.592 63.9754 238.2 63.1434 239.416C62.3434 240.632 61.9434 242.152 61.9434 243.976C61.9434 247.176 62.6794 249.736 64.1514 251.656C65.6554 253.576 67.6394 254.536 70.1034 254.536C72.6314 254.536 74.5514 253.416 75.8634 251.176C76.0554 250.92 76.2794 250.776 76.5354 250.744C76.8234 250.68 77.0634 250.744 77.2554 250.936C77.4794 251.096 77.5754 251.336 77.5434 251.656C77.3834 253.8 76.4394 255.64 74.7114 257.176C73.0154 258.712 70.6954 259.48 67.7514 259.48ZM92.9926 259.48C89.1846 259.48 86.0326 258.312 83.5366 255.976C81.0726 253.608 79.8406 250.728 79.8406 247.336C79.8406 243.912 81.0566 241.08 83.4886 238.84C85.9206 236.6 88.8486 235.48 92.2726 235.48C95.9526 235.48 99.0246 236.648 101.489 238.984C103.953 241.288 105.185 244.152 105.185 247.576C105.185 251 104.017 253.848 101.681 256.12C99.3766 258.36 96.4806 259.48 92.9926 259.48ZM93.8566 257.368C95.1686 257.368 96.1766 256.76 96.8806 255.544C97.6166 254.328 97.9846 252.616 97.9846 250.408C97.9846 248.584 97.7126 246.712 97.1686 244.792C96.6566 242.84 95.8726 241.16 94.8166 239.752C93.7606 238.312 92.5926 237.592 91.3126 237.592C88.3686 237.592 86.8966 239.928 86.8966 244.6C86.8966 246.328 87.1526 248.152 87.6646 250.072C88.2086 251.992 89.0246 253.688 90.1126 255.16C91.2326 256.632 92.4806 257.368 93.8566 257.368ZM147.812 254.344C147.876 255.112 148.18 255.832 148.724 256.504C149.268 257.176 149.54 257.688 149.54 258.04V258.232C149.54 258.776 149.188 259.048 148.484 259.048H140.18C139.444 259.048 139.076 258.776 139.076 258.232V258.04C139.076 257.72 139.364 257.224 139.94 256.552C140.548 255.88 140.82 255.16 140.756 254.392L140.276 245.608C140.148 242.952 139.748 241.064 139.076 239.944C138.404 238.792 137.412 238.216 136.1 238.216C134.98 238.216 134.068 238.68 133.364 239.608C132.66 240.536 132.276 241.736 132.212 243.208C132.34 243.848 132.404 244.616 132.404 245.512V254.392C132.404 255.16 132.676 255.88 133.22 256.552C133.796 257.224 134.084 257.72 134.084 258.04V258.232C134.084 258.776 133.732 259.048 133.028 259.048H124.724C123.988 259.048 123.62 258.776 123.62 258.232V258.04C123.62 257.72 123.908 257.224 124.484 256.552C125.06 255.88 125.348 255.16 125.348 254.392V245.032C125.348 242.856 124.964 241.176 124.196 239.992C123.428 238.808 122.42 238.216 121.172 238.216C119.892 238.216 118.884 238.712 118.148 239.704C117.412 240.696 117.044 241.976 117.044 243.544V254.392C117.044 255.16 117.38 255.88 118.052 256.552C118.756 257.224 119.108 257.72 119.108 258.04V258.232C119.108 258.776 118.74 259.048 118.004 259.048H109.076C108.34 259.048 107.972 258.776 107.972 258.232V258.04C107.972 257.72 108.308 257.224 108.98 256.552C109.684 255.88 110.036 255.16 110.036 254.392V243.208C110.036 242.6 109.844 242.088 109.46 241.672C109.076 241.256 108.676 240.904 108.26 240.616C107.876 240.296 107.684 239.976 107.684 239.656V239.464C107.684 239.112 108.02 238.776 108.692 238.456L114.74 235.672C115.284 235.416 115.7 235.4 115.988 235.624C116.276 235.816 116.42 236.168 116.42 236.68V238.936C117.924 236.632 120.132 235.48 123.044 235.48C126.692 235.48 129.348 236.92 131.012 239.8C131.652 238.456 132.612 237.4 133.892 236.632C135.204 235.864 136.676 235.48 138.308 235.48C140.74 235.48 142.772 236.296 144.404 237.928C146.036 239.528 146.98 242.152 147.236 245.8L147.812 254.344ZM160.681 231.4C159.849 232.168 158.729 232.552 157.321 232.552C155.913 232.552 154.761 232.168 153.865 231.4C153.001 230.6 152.569 229.576 152.569 228.328C152.569 227.112 153.001 226.12 153.865 225.352C154.761 224.552 155.913 224.152 157.321 224.152C158.729 224.152 159.849 224.552 160.681 225.352C161.545 226.12 161.977 227.112 161.977 228.328C161.977 229.576 161.545 230.6 160.681 231.4ZM152.953 259C152.249 259 151.896 258.728 151.896 258.184V257.992C151.896 257.672 152.201 257.176 152.809 256.504C153.417 255.832 153.721 255.112 153.721 254.344V243.496C153.721 242.696 153.417 241.944 152.809 241.24C152.201 240.536 151.896 240.056 151.896 239.8V239.656C151.896 239.336 152.233 239 152.905 238.648L158.905 235.672C159.513 235.416 159.993 235.4 160.345 235.624C160.697 235.816 160.873 236.152 160.873 236.632V254.344C160.873 255.112 161.209 255.832 161.881 256.504C162.553 257.176 162.889 257.672 162.889 257.992V258.184C162.889 258.728 162.521 259 161.785 259H152.953ZM190.541 254.344C190.605 255.112 190.909 255.832 191.453 256.504C191.997 257.176 192.269 257.688 192.269 258.04V258.232C192.269 258.776 191.901 259.048 191.165 259.048H182.861C182.125 259.048 181.757 258.776 181.757 258.232V258.04C181.757 257.72 182.045 257.224 182.621 256.552C183.229 255.88 183.517 255.144 183.485 254.344L183.005 245.464C182.781 240.632 181.389 238.216 178.829 238.216C177.549 238.216 176.541 238.696 175.805 239.656C175.101 240.616 174.749 241.896 174.749 243.496V254.392C174.749 255.16 175.085 255.88 175.757 256.552C176.461 257.224 176.813 257.72 176.813 258.04V258.232C176.813 258.776 176.445 259.048 175.709 259.048H166.781C166.045 259.048 165.677 258.776 165.677 258.232V258.04C165.677 257.72 166.013 257.224 166.685 256.552C167.389 255.88 167.741 255.16 167.741 254.392V243.208C167.741 242.728 167.613 242.296 167.357 241.912C167.133 241.528 166.861 241.256 166.541 241.096C166.253 240.904 165.981 240.68 165.725 240.424C165.501 240.168 165.389 239.912 165.389 239.656V239.464C165.389 239.112 165.709 238.776 166.349 238.456L172.061 235.672C172.605 235.416 173.005 235.4 173.261 235.624C173.549 235.816 173.693 236.168 173.693 236.68V239.368C175.069 236.776 177.437 235.48 180.797 235.48C183.229 235.48 185.293 236.296 186.989 237.928C188.717 239.56 189.709 242.152 189.965 245.704L190.541 254.344ZM215.288 235.96C216.504 235.96 217.304 236.088 217.688 236.344C218.104 236.568 218.232 236.92 218.072 237.4C217.976 237.88 217.768 238.232 217.448 238.456C217.128 238.648 216.584 238.808 215.816 238.936C215.048 239.064 214.584 239.16 214.424 239.224C216.216 241.08 217.112 243.128 217.112 245.368C217.112 247.224 216.632 248.888 215.672 250.36C214.744 251.8 213.432 252.92 211.736 253.72C215.576 254.584 217.496 256.408 217.496 259.192C217.496 261.208 216.344 262.824 214.04 264.04C211.768 265.288 208.904 265.912 205.448 265.912C201.992 265.912 199.256 265.288 197.24 264.04C195.256 262.792 194.264 261.208 194.264 259.288C194.264 258.552 194.504 257.928 194.984 257.416C195.464 256.872 196.168 256.6 197.096 256.6C197.96 256.6 198.696 256.984 199.304 257.752C199.912 258.488 200.376 259.304 200.696 260.2C201.048 261.128 201.64 261.96 202.472 262.696C203.304 263.464 204.344 263.864 205.592 263.896C207.064 263.896 208.232 263.48 209.096 262.648C209.992 261.816 210.44 260.728 210.44 259.384C210.44 256.856 209.448 255.384 207.464 254.968C206.632 255.032 206.008 255.064 205.592 255.064C202.36 255.064 199.672 254.168 197.528 252.376C195.416 250.552 194.36 248.28 194.36 245.56C194.36 242.552 195.416 240.12 197.528 238.264C199.64 236.408 202.376 235.48 205.736 235.48C206.6 235.48 207.96 235.56 209.816 235.72C211.672 235.88 213.496 235.96 215.288 235.96ZM201.128 242.392C201.128 245.016 201.672 247.432 202.76 249.64C203.88 251.816 205.176 252.904 206.648 252.904C207.768 252.904 208.648 252.472 209.288 251.608C209.96 250.712 210.296 249.544 210.296 248.104C210.296 246.536 210.072 244.952 209.624 243.352C209.176 241.752 208.504 240.392 207.608 239.272C206.712 238.152 205.736 237.592 204.68 237.592C203.592 237.592 202.728 238.024 202.088 238.888C201.448 239.752 201.128 240.92 201.128 242.392ZM240.629 259.432C237.621 259.432 235.157 258.888 233.237 257.8C231.317 256.712 230.357 255.4 230.357 253.864C230.357 253 230.613 252.344 231.125 251.896C231.669 251.448 232.373 251.224 233.237 251.224C234.165 251.224 234.917 251.56 235.493 252.232C236.069 252.872 236.469 253.592 236.693 254.392C236.949 255.192 237.397 255.928 238.037 256.6C238.709 257.24 239.573 257.56 240.629 257.56C241.653 257.56 242.485 257.288 243.125 256.744C243.797 256.2 244.133 255.416 244.133 254.392C244.133 253.24 243.669 252.328 242.741 251.656C241.845 250.984 240.741 250.488 239.429 250.168C238.117 249.816 236.805 249.432 235.493 249.016C234.181 248.568 233.061 247.816 232.133 246.76C231.237 245.672 230.789 244.264 230.789 242.536C230.789 240.488 231.685 238.808 233.477 237.496C235.301 236.152 237.653 235.48 240.533 235.48C243.445 235.48 245.813 236.056 247.637 237.208C249.493 238.328 250.421 239.672 250.421 241.24C250.421 241.944 250.149 242.536 249.605 243.016C249.093 243.496 248.453 243.736 247.685 243.736C246.789 243.736 246.069 243.416 245.525 242.776C244.981 242.104 244.597 241.384 244.373 240.616C244.149 239.816 243.749 239.096 243.173 238.456C242.597 237.784 241.845 237.448 240.917 237.448C239.989 237.448 239.237 237.768 238.661 238.408C238.085 239.016 237.797 239.768 237.797 240.664C237.797 241.56 238.037 242.312 238.517 242.92C238.997 243.528 239.621 243.992 240.389 244.312C241.157 244.632 242.005 244.936 242.933 245.224C243.861 245.48 244.789 245.784 245.717 246.136C246.677 246.456 247.541 246.856 248.309 247.336C249.077 247.816 249.701 248.504 250.181 249.4C250.661 250.264 250.901 251.32 250.901 252.568C250.901 254.552 249.973 256.2 248.117 257.512C246.261 258.792 243.765 259.432 240.629 259.432ZM266.43 259.48C262.622 259.48 259.47 258.312 256.974 255.976C254.51 253.608 253.278 250.728 253.278 247.336C253.278 243.912 254.494 241.08 256.926 238.84C259.358 236.6 262.286 235.48 265.71 235.48C269.39 235.48 272.462 236.648 274.926 238.984C277.39 241.288 278.622 244.152 278.622 247.576C278.622 251 277.454 253.848 275.118 256.12C272.814 258.36 269.918 259.48 266.43 259.48ZM267.294 257.368C268.606 257.368 269.614 256.76 270.318 255.544C271.054 254.328 271.422 252.616 271.422 250.408C271.422 248.584 271.15 246.712 270.606 244.792C270.094 242.84 269.31 241.16 268.254 239.752C267.198 238.312 266.03 237.592 264.75 237.592C261.806 237.592 260.334 239.928 260.334 244.6C260.334 246.328 260.59 248.152 261.102 250.072C261.646 251.992 262.462 253.688 263.55 255.16C264.67 256.632 265.918 257.368 267.294 257.368ZM294.274 259.48C290.466 259.48 287.314 258.312 284.818 255.976C282.354 253.608 281.122 250.728 281.122 247.336C281.122 243.912 282.338 241.08 284.77 238.84C287.202 236.6 290.13 235.48 293.554 235.48C297.234 235.48 300.306 236.648 302.77 238.984C305.234 241.288 306.466 244.152 306.466 247.576C306.466 251 305.298 253.848 302.962 256.12C300.658 258.36 297.762 259.48 294.274 259.48ZM295.138 257.368C296.45 257.368 297.458 256.76 298.162 255.544C298.898 254.328 299.266 252.616 299.266 250.408C299.266 248.584 298.994 246.712 298.45 244.792C297.938 242.84 297.154 241.16 296.098 239.752C295.042 238.312 293.874 237.592 292.594 237.592C289.65 237.592 288.178 239.928 288.178 244.6C288.178 246.328 288.434 248.152 288.946 250.072C289.49 251.992 290.306 253.688 291.394 255.16C292.514 256.632 293.762 257.368 295.138 257.368ZM334.166 254.344C334.23 255.112 334.534 255.832 335.078 256.504C335.622 257.176 335.894 257.688 335.894 258.04V258.232C335.894 258.776 335.526 259.048 334.79 259.048H326.486C325.75 259.048 325.382 258.776 325.382 258.232V258.04C325.382 257.72 325.67 257.224 326.246 256.552C326.854 255.88 327.142 255.144 327.11 254.344L326.63 245.464C326.406 240.632 325.014 238.216 322.454 238.216C321.174 238.216 320.166 238.696 319.43 239.656C318.726 240.616 318.374 241.896 318.374 243.496V254.392C318.374 255.16 318.71 255.88 319.382 256.552C320.086 257.224 320.438 257.72 320.438 258.04V258.232C320.438 258.776 320.07 259.048 319.334 259.048H310.406C309.67 259.048 309.302 258.776 309.302 258.232V258.04C309.302 257.72 309.638 257.224 310.31 256.552C311.014 255.88 311.366 255.16 311.366 254.392V243.208C311.366 242.728 311.238 242.296 310.982 241.912C310.758 241.528 310.486 241.256 310.166 241.096C309.878 240.904 309.606 240.68 309.35 240.424C309.126 240.168 309.014 239.912 309.014 239.656V239.464C309.014 239.112 309.334 238.776 309.974 238.456L315.686 235.672C316.23 235.416 316.63 235.4 316.886 235.624C317.174 235.816 317.318 236.168 317.318 236.68V239.368C318.694 236.776 321.062 235.48 324.422 235.48C326.854 235.48 328.918 236.296 330.614 237.928C332.342 239.56 333.334 242.152 333.59 245.704L334.166 254.344Z" fill="white"/>
</svg>
