<svg width="511" height="610" viewBox="0 0 511 610" fill="none" xmlns="http://www.w3.org/2000/svg">
<path fill-rule="evenodd" clip-rule="evenodd" d="M341.911 55.6555V330.026C341.911 335.853 338.044 341.702 333.28 343.089L244.069 369.066L147.125 397.306L8.69463 437.626C3.93074 439.014 0.0640869 435.428 0.0640869 429.601V155.231C0.0640869 149.403 3.93074 143.555 8.69463 142.167L333.301 47.6298C338.044 46.2423 341.911 49.8497 341.911 55.6555Z" fill="#F4F6FA"/>
<path fill-rule="evenodd" clip-rule="evenodd" d="M341.911 208.914V300.634L276.049 302.597L269.769 331.371L254.665 361.211L244.048 369.087L147.104 397.327C143.344 389.451 139.328 381.041 135.397 372.78C130.313 362.129 131.274 349.599 137.918 339.845C144.562 330.09 155.884 324.604 167.676 325.437C201.835 327.827 238.729 330.431 238.729 330.431C238.729 330.431 259.728 324.199 249.453 307.742C249.453 307.742 242.083 311.562 228.774 306.952C214.354 301.957 203.395 298.264 192.692 293.91C165.284 282.768 156.803 275.019 157.379 268.851L109.441 239.821L104.549 232.927L144.391 246.225C144.391 246.225 184.531 260.078 187.565 261.06C190.598 262.02 236.293 278.477 236.293 278.477L257.314 223.279L268.636 211.027C268.636 211.027 278.506 196.448 269.79 189.682C265.005 185.968 246.27 197.835 239.006 184.986C232.64 173.673 260.305 168.465 260.305 168.465L341.911 208.914Z" fill="#F4F6FA"/>
<path fill-rule="evenodd" clip-rule="evenodd" d="M341.911 179.479V181.015L272.802 201.144L272.61 278.285L341.889 258.114V259.608L272.61 279.779L272.418 360.827V361.04H270.986L271.179 280.206L203.736 299.844L203.544 380.891V381.105H202.818H202.113L202.305 300.271L133.688 320.25L133.496 401.297L132.064 401.703L132.257 320.655L65.9895 339.951L65.7972 420.999L64.3659 421.404L64.5582 340.357L0 359.162V357.689L64.5582 338.884L64.7505 261.743L0.0213627 280.59V279.096L64.7718 260.249L64.9641 177.728L66.3954 177.344L66.2031 259.822L132.47 240.526L132.663 158.005L134.094 157.514L133.902 240.099L202.519 220.12L202.711 137.599L204.142 137.044L203.95 219.714L271.392 200.077L271.585 117.556H273.016L272.824 199.65L341.911 179.479ZM66.0322 338.436L132.299 319.14L132.492 241.998L66.2245 261.294L66.0322 338.436ZM202.327 298.755L133.709 318.734L133.902 241.593L202.519 221.614L202.327 298.755ZM203.758 298.328L271.2 278.691L271.392 201.549L203.95 221.187L203.758 298.328Z" fill="white"/>
<path fill-rule="evenodd" clip-rule="evenodd" d="M341.911 55.6555V97.2785L0.0213623 196.854V155.231C0.0213623 149.403 3.88802 143.555 8.65191 142.167L333.259 47.6298C338.044 46.2423 341.911 49.8497 341.911 55.6555Z" fill="#FBFBFE"/>
<g opacity="0.6">
<path fill-rule="evenodd" clip-rule="evenodd" d="M28.0065 156.447C28.2843 156.362 28.562 156.49 28.7115 156.725C29.4165 157.963 31.4887 161.527 31.6596 161.848C31.6596 161.869 31.6809 161.869 31.7023 161.869C31.7023 161.869 34.2231 156.042 34.7999 154.718C34.864 154.548 35.0135 154.42 35.1844 154.377C35.3767 154.313 35.569 154.355 35.7185 154.484C35.868 154.59 35.9535 154.782 35.9535 154.974C35.9535 157.024 35.9535 162.36 35.9535 163.811C35.9535 164.025 35.8039 164.238 35.5903 164.302C35.4194 164.345 35.2485 164.324 35.099 164.217C34.9494 164.11 34.8853 163.939 34.8853 163.769C34.8853 161.933 34.8853 157.28 34.8853 156.896V156.874H34.864C34.864 156.874 32.6636 161.869 32.1296 163.064C32.0655 163.235 31.9159 163.342 31.745 163.406C31.4673 163.491 31.1896 163.363 31.0401 163.128C30.3564 161.976 28.4338 158.731 28.4338 158.731C28.4338 158.731 28.4124 158.731 28.4124 158.753C28.4124 159.051 28.4124 164.494 28.4124 166.01C28.4124 166.245 28.2629 166.437 28.0493 166.501C27.8784 166.544 27.7075 166.522 27.5579 166.415C27.4084 166.309 27.3443 166.138 27.3443 165.967C27.3443 164.003 27.3443 158.731 27.3443 157.13C27.3443 156.853 27.5152 156.618 27.7929 156.533C27.8997 156.469 27.9638 156.447 28.0065 156.447Z" fill="#B9C1EF"/>
<path fill-rule="evenodd" clip-rule="evenodd" d="M38.517 161.783C38.7734 162.232 39.1366 162.552 39.6065 162.723C40.0765 162.893 40.6106 162.893 41.2301 162.723C41.8069 162.573 42.341 162.253 42.8109 161.826C43.2809 161.399 43.6655 160.887 43.9218 160.268C44.1995 159.67 44.3277 159.009 44.3277 158.326C44.3277 157.621 44.1782 157.045 43.9218 156.597C43.6441 156.127 43.2809 155.807 42.8109 155.657C42.341 155.508 41.8069 155.508 41.2301 155.679C40.6106 155.849 40.0765 156.17 39.6065 156.618C39.1366 157.045 38.7734 157.578 38.517 158.197C38.2607 158.795 38.1325 159.435 38.1325 160.097C38.1325 160.759 38.2607 161.335 38.517 161.783ZM43.0032 159.969C42.8109 160.396 42.576 160.759 42.2555 161.058C41.9351 161.357 41.5933 161.549 41.2087 161.655C40.8242 161.762 40.461 161.762 40.1406 161.634C39.8202 161.506 39.5638 161.271 39.3929 160.951C39.222 160.609 39.1366 160.225 39.1366 159.777C39.1366 159.329 39.222 158.88 39.3929 158.454C39.5638 158.027 39.7988 157.664 40.1192 157.344C40.4397 157.045 40.8028 156.831 41.2087 156.703C41.5933 156.597 41.9351 156.597 42.2555 156.725C42.576 156.831 42.8323 157.066 43.0032 157.386C43.1955 157.728 43.2809 158.112 43.2809 158.603C43.2809 159.094 43.1955 159.542 43.0032 159.969Z" fill="#B9C1EF"/>
<path fill-rule="evenodd" clip-rule="evenodd" d="M94.9574 138.133C94.8078 138.176 94.6369 138.155 94.5088 138.048C94.3806 137.962 94.2951 137.792 94.2951 137.642C94.2951 137.621 94.2951 137.6 94.2951 137.578C94.2951 137.343 94.4447 137.151 94.6583 137.087C95.6837 136.788 98.6531 135.935 99.9563 135.55C100.106 135.508 100.277 135.529 100.405 135.636C100.533 135.743 100.597 135.892 100.597 136.041C100.597 136.063 100.597 136.084 100.597 136.105C100.597 136.34 100.448 136.532 100.234 136.596C99.5076 136.81 97.9482 137.258 97.9482 137.258C97.9482 137.258 97.9482 144.003 97.9482 145.753C97.9482 146.01 97.7773 146.223 97.5423 146.287C97.3927 146.33 97.2218 146.308 97.0937 146.202C96.9655 146.095 96.88 145.945 96.88 145.796C96.88 143.704 96.88 137.578 96.88 137.578C96.88 137.578 95.7478 137.898 94.9574 138.133Z" fill="#B9C1EF"/>
<path fill-rule="evenodd" clip-rule="evenodd" d="M101.537 144.494C101.153 144.131 100.939 143.469 100.939 142.509V138.774C100.939 138.56 101.088 138.368 101.281 138.325C101.43 138.283 101.601 138.304 101.729 138.411C101.858 138.517 101.922 138.667 101.922 138.816C101.922 139.905 101.922 141.911 101.922 141.911C101.922 142.658 102.05 143.171 102.285 143.448C102.52 143.726 102.904 143.79 103.396 143.64C103.716 143.555 104.015 143.363 104.293 143.064C104.571 142.786 104.784 142.424 104.934 141.975C105.105 141.548 105.169 141.057 105.169 140.524C105.169 140.524 105.169 138.411 105.169 137.536C105.169 137.322 105.318 137.13 105.511 137.087C105.66 137.045 105.831 137.066 105.959 137.173C106.087 137.279 106.173 137.429 106.173 137.578C106.173 139.008 106.173 142.338 106.173 143.427C106.173 143.64 106.023 143.832 105.831 143.875C105.681 143.918 105.511 143.896 105.382 143.79C105.254 143.683 105.169 143.533 105.169 143.384C105.169 143.128 105.169 142.872 105.169 142.872H105.147C104.934 143.341 104.635 143.747 104.293 144.067C103.951 144.387 103.567 144.601 103.161 144.729C102.498 144.942 101.943 144.857 101.537 144.494Z" fill="#B9C1EF"/>
<path fill-rule="evenodd" clip-rule="evenodd" d="M156.973 119.029C157.123 118.987 157.294 119.008 157.422 119.072C157.55 119.157 157.657 119.285 157.7 119.435C158.191 121.164 159.686 126.287 159.686 126.287H159.708C159.708 126.287 161.225 119.67 161.588 118.026C161.63 117.813 161.801 117.621 162.036 117.556C162.1 117.535 162.165 117.514 162.229 117.492C162.4 117.45 162.57 117.471 162.72 117.556C162.87 117.642 162.976 117.791 163.019 117.941C163.489 119.734 164.814 124.771 164.814 124.771H164.835C164.835 124.771 166.458 118.218 166.907 116.511C166.971 116.254 167.163 116.062 167.398 115.998C167.548 115.956 167.719 115.998 167.826 116.105C167.932 116.212 167.975 116.383 167.932 116.532C167.377 118.666 165.818 124.771 165.412 126.287C165.348 126.5 165.198 126.671 164.984 126.735C164.963 126.735 164.942 126.756 164.92 126.756C164.749 126.799 164.579 126.778 164.429 126.692C164.279 126.607 164.173 126.457 164.13 126.308C163.639 124.472 162.271 119.285 162.271 119.285H162.25C162.25 119.285 160.669 126.095 160.285 127.759C160.242 127.973 160.071 128.165 159.857 128.229C159.836 128.229 159.815 128.25 159.772 128.25C159.43 128.357 159.088 128.165 158.982 127.823C158.469 126.137 157.059 121.42 156.546 119.776C156.503 119.627 156.525 119.456 156.589 119.328C156.696 119.179 156.824 119.072 156.973 119.029Z" fill="#B9C1EF"/>
<path fill-rule="evenodd" clip-rule="evenodd" d="M174.085 120.972C174.363 120.886 174.534 120.652 174.534 120.374C174.534 119.734 174.427 119.179 174.234 118.73C173.999 118.261 173.679 117.962 173.252 117.791C172.825 117.621 172.355 117.621 171.82 117.77C171.265 117.941 170.752 118.24 170.304 118.666C169.855 119.093 169.513 119.606 169.257 120.225C169.001 120.844 168.872 121.484 168.872 122.167C168.872 122.85 169.001 123.426 169.257 123.896C169.513 124.366 169.876 124.686 170.325 124.835C170.774 124.985 171.308 124.985 171.885 124.814C172.803 124.558 173.551 124.024 174.106 123.213C174.17 123.128 174.192 122.999 174.17 122.871C174.149 122.743 174.085 122.637 173.978 122.573C173.786 122.445 173.551 122.487 173.423 122.658C173.017 123.192 172.525 123.576 171.906 123.747C171.329 123.917 170.859 123.853 170.496 123.576C170.111 123.298 169.898 122.85 169.834 122.21C169.834 122.21 172.931 121.313 174.085 120.972ZM169.855 121.271C169.941 120.652 170.176 120.139 170.517 119.691C170.881 119.264 171.286 118.965 171.756 118.816C172.248 118.688 172.632 118.73 172.953 118.987C173.273 119.243 173.465 119.648 173.53 120.203L169.855 121.271Z" fill="#B9C1EF"/>
<path fill-rule="evenodd" clip-rule="evenodd" d="M226.701 99.8399C226.552 99.8826 226.36 99.8613 226.231 99.7546C226.103 99.6478 226.018 99.4984 226.018 99.3277V99.3063C226.018 99.0715 226.167 98.8581 226.402 98.794C227.449 98.4952 230.333 97.6414 231.658 97.2572C231.807 97.2145 231.999 97.2358 232.128 97.3426C232.256 97.4493 232.341 97.5987 232.341 97.7695V97.7908C232.341 98.0256 232.192 98.2391 231.957 98.3031C231.23 98.5165 229.692 98.9648 229.692 98.9648C229.692 98.9648 229.692 105.753 229.692 107.481C229.692 107.716 229.543 107.93 229.308 107.994C229.308 107.994 229.308 107.994 229.286 107.994C229.137 108.036 228.944 108.015 228.816 107.908C228.688 107.802 228.603 107.652 228.603 107.481C228.603 105.368 228.603 99.2636 228.603 99.2636C228.603 99.2636 227.47 99.6051 226.701 99.8399Z" fill="#B9C1EF"/>
<path fill-rule="evenodd" clip-rule="evenodd" d="M234.584 96.0619C234.734 96.0192 234.905 96.0405 235.033 96.1473C235.161 96.2326 235.225 96.3821 235.225 96.5528C235.225 97.8549 235.225 100.608 235.225 100.608H235.246C235.481 100.117 235.802 99.7119 236.165 99.3917C236.55 99.0502 236.977 98.8154 237.447 98.6873C238.13 98.4952 238.643 98.5806 239.028 98.9221C239.412 99.285 239.604 99.9253 239.604 100.886C239.604 100.886 239.604 103.639 239.604 104.643C239.604 104.856 239.455 105.048 239.263 105.112C239.113 105.155 238.942 105.134 238.814 105.027C238.686 104.941 238.622 104.792 238.622 104.621V101.484C238.622 100.075 238.13 99.4984 237.148 99.7973C236.55 99.968 236.08 100.331 235.738 100.865C235.396 101.398 235.225 102.06 235.225 102.828C235.225 102.828 235.225 105.027 235.225 105.923C235.225 106.137 235.076 106.329 234.883 106.393C234.734 106.436 234.563 106.414 234.435 106.308C234.307 106.222 234.242 106.073 234.242 105.902V96.5315C234.221 96.2967 234.371 96.1259 234.584 96.0619Z" fill="#B9C1EF"/>
<path fill-rule="evenodd" clip-rule="evenodd" d="M301.45 76.9366C301.62 76.8939 301.813 76.9153 301.941 77.022C302.09 77.1287 302.176 77.2995 302.176 77.4703C302.176 77.6837 302.026 77.8758 301.834 77.9399C301.022 78.1746 299.057 78.751 298.16 79.0071C297.882 79.0925 297.69 79.3486 297.69 79.6475C297.69 80.608 297.69 82.6785 297.69 82.6785C297.69 82.6785 299.676 82.1021 300.787 81.782C300.958 81.7393 301.151 81.7606 301.279 81.8674C301.428 81.9741 301.514 82.1448 301.514 82.3156C301.514 82.5291 301.364 82.7212 301.172 82.7852C300.232 83.0627 297.711 83.7884 297.711 83.7884C297.711 83.7884 297.711 86.67 297.711 87.6946C297.711 87.908 297.562 88.1001 297.369 88.1642C297.198 88.2069 297.006 88.1855 296.878 88.0788C296.728 87.9721 296.643 87.8013 296.643 87.6305V78.8363C296.643 78.5375 296.835 78.2814 297.113 78.196C298.053 77.9399 300.296 77.2782 301.45 76.9366Z" fill="#B9C1EF"/>
<path fill-rule="evenodd" clip-rule="evenodd" d="M304.184 79.306C304.334 79.2633 304.504 79.2847 304.633 79.3914C304.761 79.4981 304.846 79.6475 304.846 79.7969C304.846 80.0958 304.846 80.3733 304.846 80.3733H304.868C305.081 79.8823 305.359 79.4768 305.701 79.1352C306.021 78.8151 306.406 78.5803 306.812 78.4522C306.876 78.4309 306.94 78.4522 306.983 78.4735C307.025 78.5162 307.068 78.5589 307.068 78.623C307.068 78.8791 307.068 79.2847 307.068 79.4981C307.068 79.5835 307.004 79.6689 306.918 79.6902C306.812 79.7116 306.683 79.7543 306.683 79.7543C306.128 79.925 305.679 80.2665 305.359 80.8002C305.039 81.3338 304.868 81.9528 304.868 82.6572C304.868 82.6572 304.868 84.7704 304.868 85.6242C304.868 85.8376 304.739 86.0084 304.526 86.0724C304.376 86.1151 304.205 86.0938 304.077 85.987C303.949 85.8803 303.864 85.7309 303.864 85.5815C303.864 84.13 303.864 80.8215 303.864 79.7329C303.842 79.5408 303.97 79.37 304.184 79.306Z" fill="#B9C1EF"/>
</g>
<path fill-rule="evenodd" clip-rule="evenodd" d="M133.133 182.211V222.51C133.133 229.725 128.347 236.961 122.451 238.669L85.75 249.363C79.8539 251.092 75.0687 246.63 75.0687 239.416V199.116C75.0687 191.902 79.8539 184.666 85.75 182.958L122.451 172.264C127.749 170.727 132.15 174.142 133.004 180.098C133.069 180.61 133.133 181.144 133.133 181.677C133.133 181.869 133.133 182.04 133.133 182.211Z" fill="#F4F6FA"/>
<path fill-rule="evenodd" clip-rule="evenodd" d="M168.979 254.656L163.382 264.39L161.865 267.036C158.234 264.774 153.449 261.85 149.155 259.224C143.237 255.595 138.196 252.543 138.196 252.543L138.217 252.522C133.923 250.323 129.266 248.018 128.518 247.548C125.933 245.926 111.684 238.327 110.659 236.556C110.125 235.638 112.283 235.189 114.227 236.15C115.508 236.79 117.046 237.537 117.901 238.007C120.272 239.288 120.977 239.544 121.939 239.992C122.131 240.078 122.43 239.416 122.195 239.16C121.362 238.285 117.452 235.808 116.448 234.741C115.594 233.802 112.026 228.701 112.026 228.701C112.026 228.701 112.881 227.569 114.376 228.38C115.209 228.829 117.046 230.579 117.046 230.579C117.046 230.579 117.602 231.475 118.157 231.924C118.691 232.351 119.76 233.653 119.76 233.653C119.76 233.653 122.473 234.57 122.943 234.741C123.263 234.869 123.22 234.549 123.135 234.464C122.451 233.546 119.61 232.351 118.392 230.045C117.41 228.188 116.149 222.831 116.149 222.831C116.149 222.831 117.303 221.742 118.456 222.788C119.439 223.663 121.212 227.527 121.212 227.527C121.212 227.527 123.391 229.896 124.182 231.134C124.652 231.86 124.459 230.814 124.459 230.814L122.473 227.014L121.127 220.397C121.127 220.397 122.302 219.33 123.284 221.016C124.331 222.831 125.015 225.819 125.015 225.819C125.015 225.819 126.339 227.228 126.895 228.508C127.322 229.49 128.305 231.518 128.305 231.518C128.305 231.518 130.761 232.82 131.808 233.909C133.004 235.168 135.098 236.684 135.098 236.684C135.397 236.641 133.56 234.058 132.406 230.579C131.317 227.228 133.517 227.527 133.517 227.527C133.517 227.527 135.525 230.835 137.384 232.393C138.495 233.332 139.306 233.759 142.596 240.654C142.639 240.718 142.682 240.803 142.746 240.867C143.237 241.486 144.583 242.34 146.271 243.258L156.397 248.338L168.979 254.656Z" fill="#EF8781"/>
<path fill-rule="evenodd" clip-rule="evenodd" d="M168.979 254.656L163.382 264.389C160.37 261.465 157.785 258.946 156.076 257.196C155.692 256.812 154.837 256.043 153.684 254.976C150.565 252.052 145.416 246.865 142.724 240.846C143.216 241.465 144.562 242.319 146.249 243.236L156.375 248.316L168.979 254.656Z" fill="#ED736B"/>
<path d="M141.443 244.539C141.443 244.539 134.607 243.002 135.269 237.537" stroke="#ED736B" stroke-width="1.18813" stroke-linecap="round" stroke-linejoin="round"/>
<path d="M125.933 243.621V239.949L126.937 235.851L128.07 233.418" stroke="#ED736B" stroke-width="1.18813" stroke-linecap="round" stroke-linejoin="round"/>
<path fill-rule="evenodd" clip-rule="evenodd" d="M168.979 254.656L163.382 264.39L161.865 267.036C158.234 264.774 153.449 261.849 149.155 259.224C150.586 258.157 152.316 256.684 153.705 254.998C155.35 253.013 156.568 250.707 156.397 248.359L168.979 254.656Z" fill="white"/>
<path fill-rule="evenodd" clip-rule="evenodd" d="M217.11 262.212C217.11 262.212 160.626 244.496 161.609 246.801C164.942 254.613 158.811 263.365 153.812 262.34L162.122 268.36C162.122 268.36 162.036 275.937 177.759 282.874C185.279 286.204 200.041 291.903 212.217 296.535C223.924 301.103 237.233 298.456 246.291 289.747C261.074 275.574 283.227 254.336 294.4 243.621C298.822 239.373 301.257 233.439 301.044 227.313C301.044 227.185 301.044 227.057 301.022 226.95C300.702 216.833 293.246 208.337 283.227 206.715C276.434 205.605 269.555 207.889 264.77 212.841C249.645 228.53 217.11 262.212 217.11 262.212Z" fill="#29377E"/>
<path opacity="0.3" fill-rule="evenodd" clip-rule="evenodd" d="M246.932 199.073L124.331 234.762C104.613 240.504 88.6126 239.33 88.6126 232.115V191.816C88.6126 184.601 104.613 174.099 124.331 168.358L246.932 132.647C266.65 126.905 282.65 128.079 282.65 135.294V175.594C282.65 182.83 266.65 193.331 246.932 199.073Z" fill="url(#paint0_linear)"/>
<path fill-rule="evenodd" clip-rule="evenodd" d="M135.013 178.496V218.796C135.013 222.169 133.966 225.541 132.257 228.359C131.723 229.255 131.103 230.066 130.441 230.835C128.71 232.82 126.596 234.293 124.331 234.976L87.6299 245.648C81.7338 247.377 76.9486 242.916 76.9486 235.701V195.402C76.9486 188.187 81.7338 180.951 87.6299 179.244L124.331 168.55C129.629 167.013 134.03 170.428 134.884 176.383C134.948 176.896 135.013 177.429 135.013 177.963C135.013 178.155 135.013 178.326 135.013 178.496Z" fill="#39458D"/>
<path fill-rule="evenodd" clip-rule="evenodd" d="M132.833 226.566C132.833 226.566 132.299 227.292 132.257 228.359C131.723 229.255 131.103 230.066 130.441 230.835C129.971 227.035 132.833 226.566 132.833 226.566ZM132.598 209.554C132.598 209.554 131.936 214.57 135.034 218.455V211.774L132.598 209.554Z" fill="#5C2D58"/>
<path fill-rule="evenodd" clip-rule="evenodd" d="M111.471 215.573C110.381 217.174 108.865 218.327 106.942 219.031V222.937C106.942 223.364 106.664 223.748 106.237 223.876C105.916 223.962 105.575 223.898 105.318 223.706C105.062 223.513 104.912 223.193 104.912 222.873C104.912 221.507 104.912 219.586 104.912 219.586C103.075 219.863 101.409 219.565 99.9563 218.732C99.5504 218.497 99.2513 218.134 99.1445 217.686C99.0163 217.238 99.0804 216.768 99.3154 216.384C99.764 215.616 100.747 215.338 101.537 215.744C102.028 216.021 102.541 216.235 103.097 216.341C104.165 216.576 105.211 216.555 106.237 216.256C107.433 215.915 108.395 215.296 109.142 214.399C109.89 213.503 110.253 212.478 110.253 211.304C110.253 210.429 110.082 209.767 109.719 209.298C109.356 208.828 108.865 208.486 108.224 208.294C107.583 208.102 106.707 207.953 105.575 207.846C104.143 207.697 102.968 207.505 102.071 207.248C101.174 206.992 100.448 206.501 99.8708 205.797C99.294 205.071 98.9949 204.004 98.9949 202.574C98.9949 200.695 99.5076 198.967 100.554 197.408C101.601 195.85 103.054 194.74 104.912 194.078V190.023C104.912 189.596 105.19 189.212 105.617 189.084C105.938 188.998 106.28 189.062 106.536 189.254C106.792 189.447 106.942 189.767 106.942 190.087C106.942 191.538 106.942 193.63 106.942 193.63C107.925 193.545 108.907 193.609 109.869 193.822C110.125 193.886 110.381 193.95 110.638 194.014C111.108 194.164 111.471 194.505 111.642 194.954C111.813 195.402 111.791 195.914 111.556 196.341C111.172 197.024 110.339 197.344 109.591 197.088C109.142 196.917 108.672 196.811 108.181 196.747C107.22 196.64 106.344 196.683 105.553 196.917C104.442 197.238 103.545 197.814 102.862 198.646C102.178 199.479 101.836 200.439 101.836 201.528C101.836 202.296 102.028 202.873 102.392 203.257C102.755 203.641 103.246 203.919 103.844 204.068C104.442 204.217 105.276 204.367 106.344 204.495C107.946 204.666 109.206 204.879 110.104 205.157C111.001 205.434 111.727 205.968 112.283 206.736C112.838 207.526 113.116 208.679 113.116 210.215C113.116 212.201 112.56 213.993 111.471 215.573Z" fill="white"/>
<path fill-rule="evenodd" clip-rule="evenodd" d="M133.474 233.247C133.474 233.247 131.509 229.832 131.723 228.337C131.936 226.758 132.919 226.395 132.919 226.395C132.919 226.395 135.013 230.216 136.828 231.859C136.828 231.838 134.97 233.951 133.474 233.247Z" fill="#EF8781"/>
<path fill-rule="evenodd" clip-rule="evenodd" d="M282.138 522.708H282.116C281.796 522.687 281.54 522.409 281.561 522.089C282.074 511.609 268.551 510.114 257.699 508.919C251.888 508.279 247.274 507.767 245.372 506.059C243.001 503.924 242.787 500.552 244.753 496.326C246.184 493.252 248.235 490.818 248.32 490.712C248.534 490.456 248.897 490.434 249.154 490.648C249.41 490.861 249.431 491.245 249.218 491.48C249.132 491.566 241.378 500.851 246.163 505.162C247.786 506.614 252.657 507.169 257.806 507.724C263.338 508.343 269.598 509.026 274.468 510.968C280.279 513.295 282.992 516.945 282.714 522.132C282.714 522.452 282.437 522.708 282.138 522.708Z" fill="#5C2D58"/>
<path fill-rule="evenodd" clip-rule="evenodd" d="M267.761 271.327C267.761 271.327 294.058 335.575 271.905 342.662C249.752 349.749 313.733 357.219 333.472 347.827C347.294 341.253 374.147 330.175 378.74 319.118C380.705 314.38 370.216 304.668 366.585 303.472C342.616 295.703 325.59 291.135 308.478 275.745C291.366 260.376 267.761 271.327 267.761 271.327Z" fill="#151F5F"/>
<path fill-rule="evenodd" clip-rule="evenodd" d="M252.572 461.277C252.572 461.277 252.55 461.426 252.529 461.704C252.465 462.323 252.315 463.539 252.144 464.969C249.709 468.812 245.223 475.215 241.869 480.253L239.028 475.642L237.383 472.953L222.728 449.153L226.317 445.076L229.479 441.49L232.555 440.785L237.767 439.59L241.1 444.457L252.572 461.277Z" fill="#EF8781"/>
<path fill-rule="evenodd" clip-rule="evenodd" d="M241.078 444.457C240.972 449.729 240.309 460.188 237.361 472.931L222.707 449.131L226.295 445.055L232.533 440.764L237.746 439.569L241.078 444.457Z" fill="#ED736B"/>
<path fill-rule="evenodd" clip-rule="evenodd" d="M274.981 477.264C274.981 477.264 269.299 490.989 257.442 503.476C252.871 508.3 242.018 515.344 238.216 516.731C236.272 517.457 233.238 517.884 230.419 518.076C227.193 518.311 224.287 518.247 223.732 517.991C223.347 517.82 223.262 517.308 223.412 516.582C223.561 515.899 223.903 515.002 224.394 513.978C224.586 513.572 224.821 513.124 225.056 512.676C225.505 511.822 226.039 510.926 226.595 509.986C227.77 508.023 229.115 505.974 230.354 504.159C232.533 500.936 234.392 498.439 234.392 498.439L234.477 497.969L237.81 480.85L236.806 477.158L235.353 471.757L234.67 469.26L236.678 467.125L237.703 470.541L238.985 474.831H239.092L240.395 474.703L240.288 473.934L239.711 469.495L239.241 465.759L252.486 458.353L255.349 461.426L259.045 465.418L264.492 471.266L265.389 472.227L269.512 473.017L269.576 473.081L273.336 475.984L274.981 477.264Z" fill="#72366E"/>
<path fill-rule="evenodd" clip-rule="evenodd" d="M236.678 467.147L237.703 470.562L235.332 471.779L234.648 469.281L236.678 467.147ZM252.486 458.374L239.241 465.781L239.711 469.516L255.327 461.447L252.486 458.374Z" fill="#4D1C4A"/>
<path fill-rule="evenodd" clip-rule="evenodd" d="M274.981 477.264C274.981 477.264 269.299 490.989 257.442 503.476C252.871 508.3 242.018 515.344 238.216 516.732C236.272 517.457 233.238 517.884 230.419 518.076L223.412 516.561C223.561 515.878 223.903 514.981 224.394 513.957C224.586 513.551 224.821 513.103 225.056 512.655C225.505 511.801 226.039 510.904 226.595 509.965C231.764 509.175 238.472 507.468 249.004 503.498C253.918 500.317 259.536 492.548 263.723 484.991C263.808 484.842 263.873 484.714 263.958 484.564C266.372 480.189 268.295 476.005 269.598 473.038L273.358 475.941L274.981 477.264Z" fill="white"/>
<path fill-rule="evenodd" clip-rule="evenodd" d="M274.981 477.264C274.981 477.264 269.299 490.989 257.442 503.476C252.871 508.3 242.018 515.344 238.216 516.731C236.272 517.457 233.238 517.884 230.419 518.076C227.193 518.311 224.287 518.247 223.732 517.991C223.347 517.82 223.262 517.308 223.412 516.582C223.561 515.899 223.903 515.002 224.394 513.978C227.3 514.874 232.768 515.878 238.6 513.273C247.146 509.474 256.502 501.811 261.95 493.487C265.774 487.638 270.73 480.018 273.336 475.962L274.981 477.264Z" fill="#4D1C4A"/>
<path fill-rule="evenodd" clip-rule="evenodd" d="M263.937 484.607C263.937 484.607 263.958 484.607 263.937 484.607C257.571 497.777 250.564 503.156 250.564 503.156C250.564 503.156 243.599 509.218 236.165 511.801C232.149 513.188 228.005 513.103 225.035 512.697C225.484 511.844 226.018 510.947 226.573 510.008C227.748 508.044 229.094 505.995 230.333 504.181L233.687 506.315L244.219 499.143L234.456 498.012L237.789 480.893L236.785 477.2C237.468 476.347 238.216 475.557 239.092 474.852C239.476 474.532 239.882 474.233 240.309 473.956C240.502 473.828 240.694 473.721 240.886 473.593C251.269 467.531 254.729 473.252 254.729 473.252L259.066 465.439L264.513 471.288C262.612 475.087 259.899 480.594 259.75 481.427C259.515 482.665 263.616 484.479 263.937 484.607Z" fill="#4D1C4A"/>
<path fill-rule="evenodd" clip-rule="evenodd" d="M293.033 370.709C290.085 378.821 284.936 384.947 276.113 385.075C258.532 385.331 227.321 378.949 208.201 374.616C198.438 372.396 191.837 370.709 191.837 370.709C191.837 370.709 217.045 394.125 230.803 411.094C235.46 416.836 238.814 421.852 239.434 424.969C240.224 428.918 234.947 435.278 234.947 435.278L235.011 435.385L240.117 442.578C238.323 445.439 236.507 447.637 234.798 449.345C230.354 453.806 226.787 454.831 226.787 454.831L221.083 447.765C221.083 447.765 212.837 453.464 207.283 449.131C195.576 439.996 172.953 410.945 164.749 401.809C157.422 393.634 146.741 378.842 136.679 364.22C131.231 356.344 130.719 346.056 135.354 337.667C139.969 329.279 148.941 324.22 158.533 324.604C185.151 325.671 217.964 326.995 244.86 328.062C252.572 328.382 259.792 328.66 266.244 328.916C284.06 329.641 295.981 330.111 295.981 330.111C295.981 330.111 298.929 354.423 293.033 370.709Z" fill="#202B75"/>
<path fill-rule="evenodd" clip-rule="evenodd" d="M208.18 374.615C198.417 372.396 191.816 370.709 191.816 370.709C191.816 370.709 217.024 394.125 230.782 411.073C223.82 408.528 216.336 406.451 210.784 404.91C207.069 403.878 204.218 403.087 202.967 402.556C190.884 397.395 192.241 390.082 193.319 384.28C194.001 380.604 194.571 377.534 191.538 376.003C183.741 372.075 180.28 369.002 180.494 366.654C181.127 359.872 193.718 360.017 203.104 360.125C207.013 360.17 210.366 360.209 212.068 359.738C219.323 357.756 217.561 354.985 215.254 351.357C214.878 350.766 214.487 350.151 214.119 349.514C210.295 342.875 217.857 332.032 236.785 329.428C238.176 329.252 240.772 328.788 243.962 328.218C244.25 328.167 244.542 328.115 244.838 328.062C249.698 328.25 254.362 328.438 258.762 328.616C261.345 328.72 263.836 328.821 266.222 328.916L207.432 373.74L208.18 374.615ZM240.117 442.578L235.011 435.385C233.876 436.725 232.728 437.897 231.683 438.963C228.619 442.088 226.455 444.297 228.175 447.146C229.692 449.622 232.106 450.049 234.798 449.345C236.507 447.637 238.323 445.439 240.117 442.578Z" fill="#151F5F"/>
<path fill-rule="evenodd" clip-rule="evenodd" d="M250.82 562.944C250.82 562.944 248.064 569.582 246.953 572.464C246.932 572.506 246.911 572.57 246.889 572.613C246.654 573.211 246.505 573.616 246.483 573.723C246.398 574.086 242.531 574.555 239.199 574.897C236.635 575.153 234.371 575.324 234.371 575.324L230.846 565.953L222.835 544.651L220.378 538.119L233.772 537.586L236.742 535.942L239.754 534.256L241.548 538.888L250.82 562.944Z" fill="#EF8781"/>
<path fill-rule="evenodd" clip-rule="evenodd" d="M250.82 562.944C250.82 562.944 248.064 569.582 246.953 572.464C244.539 573.424 241.89 574.257 239.199 574.897C236.635 575.153 234.371 575.324 234.371 575.324L230.846 565.953C238.921 561.855 247.615 557.544 246.419 556.775C239.263 552.207 230.29 547.896 222.835 544.63L220.378 538.098L233.772 537.564L236.742 535.921C237.895 536.625 239.562 537.671 241.548 538.888L250.82 562.944Z" fill="#ED736B"/>
<path fill-rule="evenodd" clip-rule="evenodd" d="M271.029 581.514C271.029 581.514 264.172 589.305 253.939 596.69C248.897 600.34 243.022 603.884 236.763 606.36C220.698 612.678 204.997 608.793 203.053 607.128C202.775 606.893 202.711 606.552 202.818 606.168C202.882 605.89 203.031 605.591 203.245 605.271C203.48 604.908 203.801 604.503 204.185 604.097C204.655 603.585 205.21 603.051 205.83 602.475C207.197 601.237 208.885 599.913 210.551 598.675C214.268 595.901 217.9 593.574 217.9 593.574V593.553L229.543 573.424L229.03 569.24L228.325 563.52L227.983 560.66L231.551 559.464L232.341 562.709L233.431 567.277L233.473 567.469L234.413 567.042L235.524 566.551L235.866 562.004L236.229 557.052L250.841 554.342L253.533 558.483L256.631 563.242L261.437 570.649L263.616 573.979L266.222 574.064H266.329L269.363 578.91L271.029 581.514Z" fill="#72366E"/>
<path fill-rule="evenodd" clip-rule="evenodd" d="M231.593 559.464L232.384 562.709L228.389 563.499L228.047 560.638L231.593 559.464ZM250.884 554.342L236.272 557.052L235.909 562.004L253.576 558.483L250.884 554.342Z" fill="#4D1C4A"/>
<path fill-rule="evenodd" clip-rule="evenodd" d="M271.029 581.514C271.029 581.514 264.172 589.305 253.939 596.69L231.337 607.448L219.459 606.915L210.679 606.509L202.818 606.146C202.882 605.869 203.031 605.57 203.245 605.25C203.48 604.887 203.8 604.481 204.185 604.076C204.655 603.563 205.21 603.03 205.83 602.453C211.79 603.265 219.716 603.563 232.875 602.496C239.241 600.575 247.786 593.851 254.729 586.914C254.857 586.786 254.986 586.658 255.114 586.53C259.984 581.621 264.001 576.839 266.244 574.064H266.351L269.384 578.91L271.029 581.514Z" fill="white"/>
<path fill-rule="evenodd" clip-rule="evenodd" d="M271.029 581.514C271.029 581.514 264.172 589.305 253.939 596.69C248.897 600.34 243.022 603.884 236.763 606.36C220.698 612.678 204.997 608.793 203.053 607.128C202.775 606.893 202.711 606.552 202.818 606.168C202.882 605.89 203.031 605.591 203.245 605.271C205.04 605.677 207.667 606.168 210.679 606.53C213.392 606.851 216.426 607.043 219.459 606.936C220.763 606.893 222.066 606.787 223.326 606.594C233.837 605.122 241.591 602.987 250.136 595.623C256.866 589.817 265.859 581.984 269.384 578.931L271.029 581.514Z" fill="#4D1C4A"/>
<path fill-rule="evenodd" clip-rule="evenodd" d="M255.135 586.53C244.069 598.91 234.734 602.56 234.734 602.56C234.734 602.56 226.381 605.036 217.473 605.527C212.559 605.805 207.624 604.908 204.206 604.076C204.676 603.563 205.232 603.03 205.851 602.453C207.219 601.215 208.906 599.892 210.572 598.654L218.84 601.173L229.073 596.199L217.921 593.531L229.564 573.403L229.051 569.219C230.397 568.344 231.85 567.682 233.431 567.277H233.452C233.794 567.191 234.114 567.106 234.435 567.042C246.74 564.288 248.62 571.247 248.62 571.247L256.673 563.242L261.48 570.649L251.546 581.77L255.135 586.53Z" fill="#4D1C4A"/>
<path fill-rule="evenodd" clip-rule="evenodd" d="M324.115 361.851C323.133 363.345 321.958 364.861 320.569 366.376C310.337 377.433 269.534 398.736 243.215 411.82C231.572 417.605 222.749 421.81 220.698 422.77C220.399 422.92 220.25 422.984 220.25 422.984C220.25 422.984 228.154 460.124 236.058 488.065C238.964 498.289 241.848 507.297 244.368 512.761C247.017 518.524 243.834 522.964 239.583 527.703C239.092 528.258 238.729 528.663 238.6 528.791C238.558 528.834 238.558 528.855 238.558 528.855L243.322 538.589C242.061 539.741 240.737 540.723 239.391 541.556C231.123 546.679 222.13 546.252 222.13 546.252L218.092 534.192C211.94 533.914 205.082 533.893 204.078 523.733C201.942 502.302 183.143 455.257 173.935 426.036C169.428 411.756 174.491 396.195 186.497 387.273C222.237 360.72 293.204 307.976 293.204 307.976C293.204 307.976 342.017 334.316 324.115 361.851Z" fill="#39458D"/>
<path fill-rule="evenodd" clip-rule="evenodd" d="M306.021 338.243C306.021 338.243 284.424 355.106 279.66 359.674C275.823 363.356 269.055 366.644 262.922 369.623C255.155 373.396 248.407 376.674 249.923 379.632C250.948 381.648 254.521 382.662 257.807 383.595C262.802 385.013 267.135 386.243 260.86 390.518C249.944 397.924 244.155 405.865 243.193 411.82C269.512 398.735 310.315 377.433 320.548 366.376C321.936 364.861 323.111 363.367 324.094 361.851L306.021 338.243ZM220.228 422.984C220.228 422.984 220.378 422.92 220.677 422.77C217.494 423.859 207.731 428 210.487 436.922C211.919 441.548 216.628 445.892 219.891 448.902C222.229 451.058 223.824 452.53 222.942 452.931C220.827 453.891 214.995 459.889 220.357 466.805C220.694 467.239 221.117 467.776 221.613 468.405L221.617 468.411L221.617 468.411C224.732 472.365 230.692 479.929 236.016 488.065C228.133 460.124 220.228 422.984 220.228 422.984ZM239.37 541.556C240.715 540.723 242.04 539.741 243.3 538.589L238.536 528.877C238.536 528.877 238.536 528.855 238.579 528.813C236.614 529.837 232.576 531.758 227.983 532.783C222.578 534 226.338 539.955 239.37 541.556Z" fill="#29377E"/>
<path fill-rule="evenodd" clip-rule="evenodd" d="M339.603 324.284C339.603 324.284 336.292 341.552 332.02 353.826C329.947 359.759 327.64 364.519 325.376 365.608C318.39 368.917 306.555 348.383 293.353 342.022C292.541 341.637 291.687 341.296 290.79 341.018C278.164 337.027 259.643 343.815 253.448 329.727C246.825 314.657 258.254 322.149 262.527 320.975C263.253 320.783 263.509 320.484 263.445 320.143C263.21 318.435 255.926 315.17 262.164 312.203C264.642 311.029 266.308 308.467 267.376 304.902C269.576 297.645 269.256 286.268 268.209 274.272C266.628 256.385 283.27 263.472 283.27 263.472L339.603 324.284Z" fill="white"/>
<path fill-rule="evenodd" clip-rule="evenodd" d="M268.487 324.711C271.456 327.358 283.74 334.871 290.79 341.018C278.164 337.027 259.643 343.815 253.448 329.727C246.825 314.657 258.254 322.149 262.527 320.975C263.253 320.783 263.509 320.484 263.445 320.143C265.112 321.765 266.885 323.281 268.487 324.711ZM283.27 263.472C283.27 263.472 266.628 256.385 268.209 274.272C269.277 286.268 269.576 297.645 267.376 304.902C268.124 305.5 268.85 306.183 269.512 306.973C272.375 310.41 301.236 299.011 306.235 305.415C311.981 312.8 322.321 338.991 332.02 353.826C336.314 341.552 339.603 324.284 339.603 324.284L283.27 263.472Z" fill="#E9EBF3"/>
<path fill-rule="evenodd" clip-rule="evenodd" d="M268.337 200.29L258.211 211.432L260.326 221.315L262.569 262.725C262.569 262.725 275.537 232.948 275.473 229.106C275.408 225.264 268.337 200.29 268.337 200.29Z" fill="#29377E"/>
<path fill-rule="evenodd" clip-rule="evenodd" d="M265.069 201.421C264.706 206.331 266.628 214.655 266.628 214.655C266.628 214.655 273.037 206.587 277.288 201.613C282.373 195.701 320.014 182.317 319.843 182.083C319.672 181.848 305.679 173.118 305.679 173.118C305.679 173.118 283.484 171.816 273.828 180.503C268.829 184.964 265.582 194.527 265.069 201.421Z" fill="white"/>
<path fill-rule="evenodd" clip-rule="evenodd" d="M393.972 316.941C384.679 332.907 376.497 343.558 370.088 343.814C368.101 343.9 360.688 340.015 359.855 339.567C359.813 339.545 359.77 339.524 359.77 339.524C359.77 339.524 355.027 346.483 352.998 345.437C352.891 345.373 352.784 345.309 352.699 345.202C321.723 310.089 275.003 303.75 270.58 285.478C265.774 265.585 263.702 249.533 263.68 236.939C263.68 235.36 263.702 233.844 263.766 232.372C264.108 223.898 265.453 217.217 267.526 212.179C271.008 203.748 270.58 192.584 272.759 189.084C278.207 180.418 282.052 177.856 288.269 176.49C304.099 172.989 314.865 179.052 311.041 183.662C309.033 186.074 292.071 187.376 293.31 188.209C293.802 188.529 294.314 188.87 294.827 189.212C296.408 190.258 298.181 191.389 300.04 192.606C300.381 192.84 300.723 193.054 301.086 193.289C301.92 193.865 302.795 194.441 303.65 195.039C310.806 200.012 318.518 206.288 322.641 213.908C342.701 250.985 331.101 256.556 357.484 277.751C371.712 289.171 379.872 290.644 384.743 295.169C385.576 295.959 386.324 296.834 386.986 297.858C387.584 298.798 386.388 302.234 384.059 306.994C383.953 307.208 383.846 307.421 383.739 307.656C382.372 310.324 395.873 313.675 393.972 316.941Z" fill="#E9EBF3"/>
<path fill-rule="evenodd" clip-rule="evenodd" d="M393.972 316.941C384.679 332.907 376.497 343.558 370.088 343.814C368.101 343.9 360.688 340.015 359.855 339.567C359.813 339.545 359.77 339.524 359.77 339.524C359.77 339.524 355.027 346.483 352.998 345.437C352.891 345.373 352.784 345.309 352.699 345.202C321.723 310.089 275.003 303.75 270.58 285.478C265.774 265.585 263.702 249.533 263.68 236.939C270.986 226.523 278.485 215.701 279.361 213.972C284.167 204.495 293.631 196.939 300.061 192.584C300.339 192.392 300.616 192.2 300.894 192.029L301.685 192.499L301.108 193.267C301.941 193.844 302.817 194.42 303.671 195.018C310.828 199.991 318.54 206.266 322.663 213.887C342.722 250.963 331.122 256.534 357.505 277.73C371.733 289.15 379.894 290.622 384.764 295.148C385.597 295.937 386.345 296.812 387.007 297.837C387.606 298.776 386.409 302.213 384.081 306.973C383.974 307.186 383.867 307.4 383.76 307.634C382.372 310.324 395.873 313.675 393.972 316.941Z" fill="#39458D"/>
<path fill-rule="evenodd" clip-rule="evenodd" d="M336.356 292.949C353.19 298.499 368.08 295.831 384.743 295.169C379.894 290.644 371.712 289.192 357.484 277.751C331.101 256.556 342.701 250.985 322.641 213.908C318.518 206.288 310.806 199.991 303.65 195.039L297.946 197.494L301.086 193.289L301.663 192.52L300.873 192.051L295.319 188.721C295.319 188.721 295.148 188.892 294.849 189.212C292.627 191.496 283.184 201.315 277.566 209.639C270.281 220.418 266.073 226.929 263.744 232.393C263.274 233.503 262.89 234.549 262.569 235.595C262.313 236.449 261.843 238.092 261.309 240.312C262.078 239.202 262.869 238.092 263.659 236.961C263.68 249.555 265.752 265.606 270.559 285.5C274.981 303.771 321.701 310.111 352.677 345.223C352.763 345.33 352.87 345.415 352.977 345.458L349.858 332.672C349.858 332.672 335.245 322.598 318.647 313.611C301.578 304.369 282.394 296.087 275.9 287.933C274.725 286.46 273.785 284.625 273.037 282.533C273.272 282.81 273.55 283.024 273.849 283.173C300.36 298.008 296.237 266.182 309.183 251.283C316.532 242.831 317.151 222.169 318.241 223.919C326.85 237.559 317.279 268.061 332.853 269.512C371.947 273.162 320.398 287.698 336.356 292.949ZM383.718 307.635C383.824 307.421 383.931 307.186 384.038 306.973C376.283 316.13 363.914 331.328 359.855 339.567C360.71 340.015 368.101 343.9 370.088 343.815C376.497 343.558 384.679 332.886 393.972 316.941C395.873 313.675 382.372 310.324 383.718 307.635Z" fill="#29377E"/>
<path fill-rule="evenodd" clip-rule="evenodd" d="M339.796 309.171L340.907 314.273L368.892 310.73L368.507 306.055L339.796 309.171Z" fill="#29377E"/>
<path fill-rule="evenodd" clip-rule="evenodd" d="M132.898 209.191C132.898 209.191 131.616 210.194 134.094 212.329C135.91 213.908 139.734 214.719 139.734 214.719C139.734 214.719 144.07 217.238 144.177 217.345C146.313 219.906 144.284 221.849 144.284 221.849L145.459 225.072C145.459 225.072 141.165 226.096 143.857 227.825C145.715 229.021 144.241 228.978 144.156 230.13C143.835 234.165 144.604 238.455 147.809 242.681C149.518 244.944 154.837 245.115 155.927 243.599C159.494 238.69 158.042 236.491 158.042 236.491C157.849 236.278 153.513 219.799 152.872 218.796C152.85 218.754 149.86 215.658 149.86 215.658L141.763 211.325L132.898 209.191Z" fill="#ED736B"/>
<path fill-rule="evenodd" clip-rule="evenodd" d="M150.778 244.304C150.757 244.304 150.757 244.304 150.735 244.304C147.681 243.898 145.117 239.949 145.651 235.146C145.993 232.051 146.164 229.298 146.164 229.298C145.245 227.996 144.626 230.493 144.668 233.119C144.668 233.802 144.22 235.851 143.857 236.235C142.532 237.665 142.383 236.513 142.383 236.513L141.72 233.353C141.742 233.332 140.973 235.04 140.567 235.531C139.52 236.769 139.371 232.628 139.371 232.628L139.136 230.088C139.007 230.899 138.879 232.329 138.217 233.076C137.747 233.588 136.957 229.981 136.444 227.313C136.102 225.584 136.401 223.77 137.277 222.233C137.982 220.973 138.879 219.415 139.605 218.113C140.524 216.512 142.34 215.658 144.156 215.957C145.886 216.256 148.044 216.64 149.796 216.939C151.718 217.281 153.299 218.689 153.833 220.568L155.563 226.672C157.016 231.731 158.789 238.049 158.875 238.22C158.832 238.22 154.987 244.816 150.778 244.304Z" fill="#EF8781"/>
<path fill-rule="evenodd" clip-rule="evenodd" d="M138.644 230.493C138.666 230.814 138.943 231.048 139.242 231.048C139.242 231.048 139.264 231.048 139.264 231.027C139.605 231.006 139.84 230.707 139.819 230.387L139.392 224.645L142.639 219.522L147.382 219.799C147.702 219.821 147.98 219.565 148.001 219.245C148.022 218.924 147.766 218.647 147.446 218.625L142.361 218.327C142.148 218.327 141.934 218.412 141.827 218.604L138.281 224.197C138.217 224.303 138.196 224.431 138.196 224.559L138.644 230.493ZM142.639 232.713C142.66 233.055 142.404 233.332 142.084 233.354H142.062C141.742 233.354 141.485 233.119 141.464 232.799L141.015 226.865C141.015 226.737 141.037 226.63 141.101 226.523L143.664 222.062C143.771 221.87 143.985 221.742 144.22 221.763L148.898 222.126C149.24 222.147 149.475 222.446 149.454 222.766C149.432 223.108 149.133 223.343 148.813 223.321L144.498 222.98L142.212 226.95L142.639 232.713Z" fill="#ED736B"/>
<path fill-rule="evenodd" clip-rule="evenodd" d="M198.951 252.65C198.951 252.65 195.298 249.853 193.653 249.085C192.008 248.316 190.962 248.06 187.757 249.405C184.531 250.75 181.071 265.499 181.071 265.499C181.071 265.499 179.639 266.439 182.673 268.488C185.706 270.537 190.769 269 190.769 269L196.537 256.705L198.951 252.65Z" fill="#151F5F"/>
<path fill-rule="evenodd" clip-rule="evenodd" d="M311.618 247.399C296.835 259.779 272.396 280.27 256.203 293.846C246.505 301.978 232.555 302.64 222.13 295.468C210.701 287.656 196.729 278.072 189.893 273.269C189.21 272.778 185.172 269.576 180.045 265.457C169.364 256.897 153.919 244.389 153.919 244.389L154.324 243.428L157.935 234.933L232.192 269.726C232.192 269.726 263.445 238.519 284.402 217.558C288.803 213.161 295.019 211.069 301.193 211.902C307.367 212.756 312.793 216.427 315.848 221.849C315.934 221.998 316.019 222.169 316.126 222.318C320.89 230.707 318.967 241.23 311.618 247.399Z" fill="#EF8781"/>
<path fill-rule="evenodd" clip-rule="evenodd" d="M187.18 250.238C187.18 250.238 186.347 258.605 186.155 259.822C186.048 260.483 182.865 263.194 180.045 265.478C169.364 256.919 153.919 244.41 153.919 244.41L154.324 243.45C154.346 243.429 154.367 243.386 154.41 243.365C155.905 241.913 161.267 247.698 169.001 251.775C176.734 255.809 187.18 250.238 187.18 250.238Z" fill="#ED736B"/>
<path fill-rule="evenodd" clip-rule="evenodd" d="M172.461 241.059C172.611 240.782 172.525 240.397 172.248 240.013C171.97 239.629 171.521 239.288 170.987 239.053C169.214 238.242 166.629 237.068 164.899 236.278C163.852 235.808 162.805 235.872 162.528 236.449C162.271 236.982 161.93 237.623 161.673 238.156C161.524 238.434 161.609 238.818 161.887 239.202C162.165 239.586 162.613 239.928 163.147 240.163C164.92 240.974 167.505 242.148 169.236 242.938C170.282 243.407 171.329 243.343 171.607 242.767C171.863 242.254 172.205 241.593 172.461 241.059Z" fill="white"/>
<path fill-rule="evenodd" clip-rule="evenodd" d="M172.269 240.739C172.419 240.462 172.333 240.077 172.055 239.693C171.778 239.309 171.329 238.967 170.795 238.733C169.172 237.986 166.907 236.961 165.326 236.257C164.279 235.787 163.233 235.851 162.955 236.427C162.784 236.79 162.57 237.196 162.378 237.559C162.229 237.836 162.314 238.22 162.592 238.605C162.87 238.989 163.318 239.33 163.852 239.565C165.476 240.312 167.74 241.337 169.321 242.041C170.368 242.511 171.415 242.447 171.692 241.87C171.863 241.507 172.077 241.102 172.269 240.739Z" fill="black"/>
<path fill-rule="evenodd" clip-rule="evenodd" d="M169.407 242.916C168.338 246.182 166.715 248.658 165.433 250.259C164.365 251.604 163.532 252.33 163.532 252.33L158.533 248.295C159.174 247.591 159.729 246.844 160.242 246.118C162.015 243.578 163.04 241.187 163.404 240.227C163.446 240.12 163.532 240.013 163.639 239.971C163.745 239.928 163.874 239.928 163.98 239.971C165.091 240.483 168.125 241.892 169.15 242.361C169.364 242.489 169.471 242.724 169.407 242.916Z" fill="#5C2D58"/>
<path fill-rule="evenodd" clip-rule="evenodd" d="M165.433 250.259C164.365 251.604 163.532 252.33 163.532 252.33L158.533 248.295C159.174 247.591 159.729 246.844 160.242 246.118C161.353 245.179 163.019 245.051 164.279 245.926C165.049 246.438 165.561 247.271 165.732 248.167C165.839 248.893 165.732 249.619 165.433 250.259Z" fill="#4D1C4A"/>
<path fill-rule="evenodd" clip-rule="evenodd" d="M184.467 247.121C184.467 247.121 192.072 249.917 195.512 252.863C198.951 255.787 186.839 270.985 186.839 270.985L177.46 264.026C177.46 264.026 180.857 260.974 183.655 256.299C186.326 251.817 184.467 247.121 184.467 247.121Z" fill="#EAE9E9"/>
<path fill-rule="evenodd" clip-rule="evenodd" d="M313.114 248.445C300.809 259.459 275.772 281.85 259.322 296.557C249.538 305.329 235.396 307.272 223.582 301.487C215.336 297.56 206.321 293.163 200.382 289.897C186.838 282.447 189.082 275.638 189.082 275.638L180.964 266.994C187.394 272.565 190.342 262.362 192.948 254.272C195.533 246.353 188.825 248.957 188.569 249.042C192.457 247.079 197.563 249.106 203.694 252.458C204.078 252.671 204.463 252.884 204.847 253.098C219.075 261.081 231.914 264.838 231.914 264.838C231.914 264.838 242.275 255.254 254.366 244.09C264.684 234.549 276.284 223.855 283.719 216.982C288.632 212.457 295.34 210.429 301.941 211.518C302.026 211.539 302.09 211.539 302.176 211.56C307.218 212.393 311.618 214.933 314.801 218.561C317.984 222.19 319.95 226.865 320.121 231.988C320.356 238.263 317.792 244.282 313.114 248.445Z" fill="#39458D"/>
<path fill-rule="evenodd" clip-rule="evenodd" d="M254.409 244.133C252.294 249.298 248.983 257.047 246.441 261.892C242.339 269.704 238.835 267.057 233.452 265.414C228.09 263.77 239.305 276.343 229.265 277.068C221.382 277.645 208.778 260.078 203.736 252.5C204.121 252.714 204.506 252.927 204.89 253.14C219.118 261.124 231.957 264.88 231.957 264.88C231.957 264.88 242.318 255.296 254.409 244.133Z" fill="#2D3C87"/>
<path fill-rule="evenodd" clip-rule="evenodd" d="M260.155 241.08C264.214 238.071 274.02 233.61 277.609 244.666C281.198 255.702 271.542 260.782 261.309 257.153C251.076 253.525 256.267 243.962 260.155 241.08Z" fill="#5C2D58"/>
<path fill-rule="evenodd" clip-rule="evenodd" d="M262.142 243.493C263.979 242.084 271.499 238.455 273.934 245.905C276.37 253.354 269.833 256.769 262.933 254.336C255.99 251.881 260.305 244.88 262.142 243.493Z" fill="white"/>
<path fill-rule="evenodd" clip-rule="evenodd" d="M263.403 245.029C264.663 244.069 269.854 241.55 271.542 246.694C273.208 251.838 268.722 254.208 263.937 252.5C259.173 250.814 262.142 245.99 263.403 245.029Z" fill="#911B89"/>
<path fill-rule="evenodd" clip-rule="evenodd" d="M292.691 187.91C292.691 187.91 287.927 193.182 285.769 195.679C285.15 196.384 284.765 196.875 284.744 196.96C284.659 197.323 277.652 203.47 276.583 202.809C275.43 202.104 274.212 201.272 272.994 200.333C266.052 195.082 258.425 186.971 257.165 186.031C257.143 186.01 257.122 186.01 257.101 185.989C256.823 185.797 248.555 189.34 240.224 191.709C235.417 193.075 232.149 190.343 230.76 182.531C230.013 178.305 229.564 174.036 229.543 172.541C228.859 172.819 228.09 173.054 227.235 173.182C223.177 173.865 219.481 173.096 223.369 171.303C225.932 170.108 227.834 168.614 229.201 166.906C229.286 166.778 229.393 166.671 229.479 166.543C229.479 165.113 229.457 163.704 229.457 162.317C229.436 154.974 229.521 148.827 229.521 148.827L240.502 137.002L256.374 136.297L268.401 149.339C268.401 149.339 274.362 166.479 275.772 170.642C276.776 173.587 280.749 177.707 284.594 181.186C288.696 184.922 292.691 187.91 292.691 187.91Z" fill="#EF8781"/>
<path fill-rule="evenodd" clip-rule="evenodd" d="M229.414 162.317V162.317C229.414 163.683 229.414 165.113 229.436 166.543C229.393 166.607 229.345 166.666 229.297 166.725L229.297 166.725C229.249 166.783 229.201 166.842 229.158 166.906C230.055 166.949 231.123 167.141 232.363 167.611C234.214 168.288 235.319 169.54 236.27 170.619C236.998 171.445 237.636 172.169 238.451 172.456C240.673 173.246 243.023 171.88 243.172 169.105C243.535 162.765 233.644 162.253 229.414 162.317ZM284.573 181.186C285.727 183.747 286.517 187.483 284.829 192.029C283.825 194.74 284.445 195.679 285.748 195.679C287.884 193.182 292.67 187.91 292.67 187.91C292.67 187.91 288.696 184.921 284.573 181.186ZM270.822 186.192C270.575 187.691 270.255 189.625 271.05 192.2C271.137 192.472 271.278 192.86 271.445 193.323C272.187 195.37 273.461 198.888 272.973 200.333C268.151 196.671 263 191.651 259.88 188.61C258.508 187.273 257.528 186.318 257.143 186.031L259.45 185.156C262.313 183.897 268.06 181.592 269.705 182.509C271.286 183.379 271.099 184.51 270.822 186.192Z" fill="#ED736B"/>
<path fill-rule="evenodd" clip-rule="evenodd" d="M234.862 161.57C234.926 162.872 235.567 163.897 236.272 163.854C236.977 163.811 237.49 162.723 237.425 161.42C237.361 160.118 236.721 159.094 236.016 159.137C235.311 159.179 234.798 160.268 234.862 161.57Z" fill="#4D1C4A"/>
<path fill-rule="evenodd" clip-rule="evenodd" d="M242.659 177.28C242.659 177.28 240.694 181.698 238.173 182.403C235.225 183.214 234.05 180.119 234.05 180.119C234.05 180.119 236.357 180.226 237.404 179.905C239.348 179.308 242.659 177.28 242.659 177.28Z" fill="white"/>
<path fill-rule="evenodd" clip-rule="evenodd" d="M260.946 165.476C260.925 165.476 260.882 165.476 260.839 165.476C260.519 165.433 260.305 165.113 260.348 164.793C261.181 159.734 264.193 158.667 264.321 158.624C264.642 158.518 264.962 158.688 265.069 159.009C265.176 159.329 265.005 159.649 264.684 159.756C264.578 159.798 262.206 160.673 261.501 164.985C261.48 165.263 261.224 165.476 260.946 165.476Z" fill="#ED736B"/>
<path fill-rule="evenodd" clip-rule="evenodd" d="M240.737 157.386C240.523 157.386 240.309 157.279 240.203 157.066C240.139 156.917 238.408 153.758 234.712 154.654C234.392 154.739 234.072 154.526 233.986 154.227C233.901 153.907 234.114 153.587 234.413 153.501C239.028 152.37 241.228 156.468 241.249 156.511C241.399 156.81 241.292 157.151 240.993 157.322C240.929 157.365 240.822 157.386 240.737 157.386Z" fill="#5C2D58"/>
<path fill-rule="evenodd" clip-rule="evenodd" d="M271.627 126.671C271.627 126.671 271.627 126.692 271.627 126.671C272.204 127.546 288.354 134.141 284.424 147.525C282.885 152.754 279.467 160.823 278.741 164.558C277.523 170.834 281.668 176.106 279.788 176.597C276.22 177.557 264.813 173.054 267.184 167.995C271.093 159.67 268.957 155.956 264.727 155.252C257.741 154.078 257.4 167.376 255.221 164.665C248.427 156.148 246.868 139.478 246.868 139.478C246.868 139.478 246.526 139.713 245.928 140.118C242.403 142.509 230.162 150.62 229.436 149.083C227.727 145.454 228.944 136.98 236.806 130.961C249.325 121.356 264.428 124.536 269.085 125.454C273.251 126.265 267.12 121.889 269.769 117.812C272.012 114.333 278.485 112.711 281.732 116.745C282.116 117.236 282.48 117.812 282.757 118.474C284.317 122.124 287.478 121.804 290.298 122.572C293.503 123.469 286.09 126.372 291.153 129.253C292.285 129.894 284.744 134.59 281.518 132.071C278.591 129.808 277.801 127.204 274.575 125.539C274.404 125.454 274.255 125.369 274.063 125.305C272.289 124.557 270.815 125.411 271.627 126.671Z" fill="#4D1C4A"/>
<path fill-rule="evenodd" clip-rule="evenodd" d="M284.424 147.525C282.885 152.754 279.467 160.823 278.741 164.558C277.523 170.834 281.668 176.106 279.788 176.597C276.22 177.558 264.813 173.054 267.184 167.995C271.093 159.67 268.957 155.956 264.727 155.252C257.741 154.078 257.4 167.376 255.221 164.665C248.427 156.148 246.868 139.478 246.868 139.478C246.868 139.478 246.526 139.713 245.928 140.118C253.084 134.227 264.278 143.469 271.093 141.57C278.485 139.521 273.828 131.089 272.033 127.802C271.777 127.311 271.649 126.948 271.649 126.671C272.204 127.546 288.354 134.163 284.424 147.525ZM291.11 129.275C286.026 126.372 293.46 123.469 290.256 122.594C287.436 121.804 284.295 122.146 282.714 118.496C282.437 117.834 282.095 117.258 281.689 116.767C282.309 119.392 282.245 122.082 280.194 123.512C278.143 124.92 276.113 125.347 274.533 125.582C277.758 127.247 278.57 129.851 281.475 132.114C284.723 134.632 292.264 129.937 291.11 129.275Z" fill="#5C2D58"/>
<path fill-rule="evenodd" clip-rule="evenodd" d="M339.945 205.925C323.175 217.153 297.497 206.48 292.477 205.05C284.723 202.851 279.745 208.892 279.745 208.892L266.607 214.698L267.355 211.005C267.355 211.005 281.112 194.121 285.556 190.834C294.165 184.452 307.282 184.473 309.76 180.823C311.597 178.112 299.612 173.566 299.612 173.566C299.612 173.566 310.785 170.386 321.531 180.162C323.902 182.317 326.252 185.092 328.452 188.678C331.486 193.609 344.389 194.292 346.076 198.22C346.803 199.927 345.371 202.296 339.945 205.925Z" fill="white"/>
<path fill-rule="evenodd" clip-rule="evenodd" d="M346.076 198.198C341.612 197.088 336.271 197.472 329.606 198.838C316.959 201.4 313.712 197.045 321.21 191.496C324.564 188.998 323.624 184.431 321.531 180.14C323.902 182.296 326.252 185.071 328.452 188.657C331.486 193.609 344.389 194.292 346.076 198.198Z" fill="#E9EBF3"/>
<path fill-rule="evenodd" clip-rule="evenodd" d="M292.499 205.05C281.732 202.424 283.184 208.145 268.765 212.307L266.244 233.183L281.967 218.689L289.123 209.789L292.499 205.05Z" fill="#29377E"/>
<path fill-rule="evenodd" clip-rule="evenodd" d="M265.112 488.3C261.971 488.3 257.186 487.446 251.311 483.711C247.616 481.363 245.266 478.993 245.159 478.887C244.924 478.652 244.924 478.268 245.159 478.054C245.394 477.819 245.778 477.819 245.992 478.054C246.077 478.14 255.05 487.104 265.069 487.104C265.24 487.104 265.432 487.104 265.603 487.104C270.367 486.955 274.618 484.757 278.271 480.552C282.394 475.813 287.35 472.675 292.605 471.523C297.134 470.519 301.642 471.01 305.252 472.931C309.781 475.322 311.917 479.42 310.806 483.625C310.721 483.945 310.401 484.138 310.08 484.052C309.76 483.967 309.567 483.647 309.653 483.326C310.614 479.698 308.713 476.112 304.697 473.977C295.703 469.217 285.15 474.468 279.168 481.341C275.302 485.802 270.73 488.129 265.646 488.3C265.475 488.3 265.304 488.3 265.112 488.3Z" fill="#5C2D58"/>
<path fill-rule="evenodd" clip-rule="evenodd" d="M234.2 584.182C233.943 578.312 232.897 572.762 232.875 572.698C232.832 572.442 232.619 572.25 232.363 572.229C232.192 572.207 232.021 572.271 231.893 572.378C231.786 572.378 231.679 572.378 231.593 572.442L231.582 572.448L231.582 572.448C231.302 572.585 226.258 575.058 221.275 578.141C214.183 582.538 210.679 585.911 210.594 588.451C210.573 589.198 210.85 590.287 212.303 591.119C213.093 591.567 213.926 591.802 214.824 591.802C215.379 591.802 215.935 591.717 216.533 591.546C221.446 590.116 226.659 582.816 229.735 577.885C226.83 586.167 224.651 596.071 227.214 598.462C227.535 598.761 228.005 599.038 228.688 599.038C229.158 599.038 229.735 598.91 230.419 598.569C233.26 597.096 234.563 592.25 234.2 584.182ZM216.191 590.393C214.952 590.756 213.884 590.65 212.901 590.073C211.876 589.476 211.79 588.878 211.79 588.472C211.918 584.609 224.031 577.608 230.419 574.342C228.09 578.44 221.745 588.771 216.191 590.393ZM228.005 597.587C228.133 597.715 228.581 598.12 229.842 597.48C234.285 595.239 233.174 581.919 232.063 574.94C227.962 585.249 226.039 595.73 228.005 597.587Z" fill="#5C2D58"/>
<path fill-rule="evenodd" clip-rule="evenodd" d="M178.87 16.9995C181.861 16.9995 184.296 19.4329 184.296 22.4212C184.296 25.4095 181.861 27.8428 178.87 27.8428C175.879 27.8428 173.444 25.4095 173.444 22.4212C173.444 19.4115 175.879 16.9995 178.87 16.9995Z" fill="#FFD459"/>
<path fill-rule="evenodd" clip-rule="evenodd" d="M442.357 216.829C445.391 216.829 447.848 219.284 447.848 222.315C447.848 225.346 445.391 227.8 442.357 227.8C439.324 227.8 436.867 225.346 436.867 222.315C436.867 219.284 439.324 216.829 442.357 216.829Z" fill="#39458D"/>
<path fill-rule="evenodd" clip-rule="evenodd" d="M28.9038 310.367C31.9373 310.367 34.394 312.822 34.394 315.853C34.394 318.884 31.9373 321.338 28.9038 321.338C25.8703 321.338 23.4136 318.884 23.4136 315.853C23.4136 312.822 25.8703 310.367 28.9038 310.367Z" fill="white"/>
<path fill-rule="evenodd" clip-rule="evenodd" d="M484.842 109.901C485.986 105.059 482.986 100.208 478.14 99.0644C473.295 97.9211 468.439 100.919 467.295 105.761C466.151 110.602 469.151 115.454 473.997 116.597C478.842 117.74 483.698 114.742 484.842 109.901Z" fill="#F4F6FA"/>
<path fill-rule="evenodd" clip-rule="evenodd" d="M142.232 571.672C144.933 571.672 147.124 569.484 147.124 566.784C147.124 564.085 144.933 561.896 142.232 561.896C139.53 561.896 137.339 564.085 137.339 566.784C137.339 569.484 139.53 571.672 142.232 571.672Z" fill="#0065FF"/>
<path fill-rule="evenodd" clip-rule="evenodd" d="M452.954 544.096C455.646 544.096 457.846 546.294 457.846 548.984C457.846 551.673 455.646 553.872 452.954 553.872C450.241 553.872 448.062 551.673 448.062 548.984C448.062 546.294 450.241 544.096 452.954 544.096Z" fill="#0065FF"/>
<path fill-rule="evenodd" clip-rule="evenodd" d="M33.8849 508.965H106.198C106.198 508.965 115.512 475.602 91.7566 490.544C90.9021 491.077 89.7485 490.736 89.3426 489.797C87.0995 484.567 79.0671 471.803 60.6097 496.371C59.7339 497.524 57.918 497.097 57.6403 495.667C56.444 489.412 51.7869 481.109 33.8849 508.965Z" fill="#F4F6FA"/>
<path fill-rule="evenodd" clip-rule="evenodd" d="M410.155 38.1525H508.306C508.306 38.1525 520.94 -8.70496 488.686 12.2889C487.51 13.0464 485.96 12.5595 485.407 11.2428C482.36 3.90219 471.455 -14.0436 446.418 20.4773C445.242 22.1005 442.765 21.4873 442.391 19.5033C440.751 10.6657 434.425 -0.985561 410.155 38.1525Z" fill="#F4F6FA"/>
<path fill-rule="evenodd" clip-rule="evenodd" d="M369.951 508.762C369.951 508.762 391.463 474.397 414.877 497.172C414.877 497.172 448.096 447.587 459.183 485.048C459.183 485.048 490.202 469.722 496.055 508.762H369.951Z" fill="#F4F6FA"/>
<defs>
<linearGradient id="paint0_linear" x1="88.6135" y1="238.417" x2="282.645" y2="238.417" gradientUnits="userSpaceOnUse">
<stop/>
<stop stop-color="#3C3DAC"/>
<stop offset="1" stop-color="white" stop-opacity="0.01"/>
</linearGradient>
</defs>
</svg>
