<svg width="24" height="16" viewBox="0 0 24 16" fill="none" xmlns="http://www.w3.org/2000/svg">
<path d="M23 5.70998C23.0494 4.27864 22.7364 2.858 22.09 1.57998C21.6514 1.05558 21.0427 0.701694 20.37 0.579984C17.5875 0.327509 14.7935 0.224028 12 0.269984C9.21664 0.221942 6.4327 0.322084 3.66 0.569984C3.11182 0.669701 2.60451 0.926826 2.2 1.30998C1.3 2.13998 1.2 3.55998 1.1 4.75998C0.954908 6.91755 0.954908 9.08242 1.1 11.24C1.12893 11.9154 1.22949 12.5858 1.4 13.24C1.52057 13.745 1.76452 14.2123 2.11 14.6C2.51726 15.0034 3.03638 15.2752 3.6 15.38C5.75591 15.6461 7.92821 15.7564 10.1 15.71C13.6 15.76 16.67 15.71 20.3 15.43C20.8775 15.3316 21.4112 15.0595 21.83 14.65C22.11 14.3699 22.3191 14.0271 22.44 13.65C22.7976 12.5526 22.9733 11.4041 22.96 10.25C23 9.68998 23 6.30998 23 5.70998ZM9.74 10.85V4.65998L15.66 7.76998C14 8.68998 11.81 9.72998 9.74 10.85Z" fill="#4E4B66"/>
</svg>
