<svg width="17" height="20" viewBox="0 0 17 20" fill="none" xmlns="http://www.w3.org/2000/svg">
<path d="M13.23 4.523C12.454 2.551 10.508 2.373 8.242 2.813L7.435 0L5.723 0.491L6.509 3.231C6.059 3.359 5.601 3.501 5.146 3.641L4.356 0.883L2.645 1.373L3.45 4.186C3.082 4.3 2.72 4.412 2.365 4.514L2.362 4.504L0 5.181L0.525 7.011C0.525 7.011 1.783 6.623 1.768 6.653C2.462 6.454 2.803 6.792 2.968 7.121L3.888 10.325C3.935 10.312 3.998 10.296 4.072 10.285L3.891 10.337L5.178 14.827C5.21 15.054 5.182 15.439 4.698 15.579C4.725 15.592 3.452 15.935 3.452 15.935L3.699 18.078L5.927 17.438C6.342 17.321 6.752 17.211 7.153 17.098L7.97 19.943L9.68 19.453L8.873 16.638C9.33169 16.5163 9.78905 16.3896 10.245 16.258L11.047 19.061L12.76 18.57L11.946 15.73C14.777 14.739 16.584 13.436 16.059 10.66C15.637 8.426 14.335 7.748 12.588 7.824C13.436 7.034 13.801 5.966 13.23 4.524V4.523ZM12.58 11.293C13.19 13.42 9.48 14.222 8.32 14.556L7.239 10.786C8.399 10.453 11.943 9.076 12.579 11.294L12.58 11.293ZM10.258 6.203C10.812 8.138 7.711 8.783 6.744 9.06L5.764 5.641C6.73 5.364 9.679 4.186 10.258 6.204V6.203Z" fill="white"/>
</svg>
