<svg width="20" height="20" viewBox="0 0 20 20" fill="none" xmlns="http://www.w3.org/2000/svg">
<path d="M6.116 8.404L10 4.52L13.886 8.406L16.146 6.146L10 0L3.856 6.144L6.116 8.404ZM0 10L2.26 7.74L4.52 10L2.26 12.26L0 10ZM6.116 11.596L10 15.48L13.886 11.594L16.146 13.853L10 20L3.856 13.856L3.853 13.853L6.116 11.596ZM15.48 10L17.74 7.74L20 10L17.74 12.26L15.48 10ZM12.292 9.998H12.294V10L10 12.294L7.709 10.004L7.705 10L7.709 9.997L8.11 9.595L8.305 9.4L10 7.706L12.293 9.999L12.292 9.998Z" fill="white"/>
</svg>
