<svg width="16" height="20" viewBox="0 0 16 20" fill="none" xmlns="http://www.w3.org/2000/svg">
<path d="M15.032 8.02C15.346 5.924 13.749 4.797 11.567 4.045L12.275 1.205L10.547 0.775L9.857 3.54C9.403 3.426 8.937 3.32 8.472 3.214L9.167 0.431L7.439 0L6.731 2.839C6.355 2.753 5.985 2.669 5.627 2.579L5.629 2.57L3.245 1.975L2.785 3.821C2.785 3.821 4.068 4.115 4.041 4.133C4.741 4.308 4.867 4.771 4.846 5.139L4.04 8.374C4.088 8.386 4.15 8.404 4.22 8.431L4.037 8.386L2.907 12.918C2.821 13.13 2.604 13.449 2.114 13.328C2.132 13.353 0.858001 13.015 0.858001 13.015L0 14.993L2.25 15.554C2.668 15.659 3.078 15.769 3.481 15.872L2.766 18.744L4.493 19.174L5.201 16.334C5.673 16.461 6.131 16.579 6.579 16.691L5.873 19.519L7.601 19.949L8.316 17.083C11.264 17.641 13.48 17.416 14.413 14.75C15.165 12.604 14.376 11.365 12.825 10.558C13.955 10.298 14.805 9.555 15.032 8.02ZM11.082 13.558C10.549 15.705 6.934 14.544 5.762 14.253L6.712 10.448C7.884 10.741 11.641 11.32 11.082 13.558ZM11.617 7.989C11.13 9.942 8.122 8.949 7.147 8.706L8.007 5.256C8.982 5.499 12.125 5.952 11.617 7.989Z" fill="white"/>
</svg>
