<svg width="21" height="17" viewBox="0 0 21 17" fill="none" xmlns="http://www.w3.org/2000/svg">
<path d="M13.129 0H5.853L5.251 3.367L11.813 3.377C15.044 3.377 16.003 4.55 15.972 6.497C15.958 7.495 15.523 9.183 15.339 9.727C14.842 11.187 13.818 12.849 9.98 12.844L3.602 12.84L3 16.211H10.257C12.816 16.211 13.906 15.912 15.057 15.381C17.611 14.203 19.132 11.68 19.743 8.387C20.649 3.487 19.519 0 13.128 0H13.129Z" fill="white"/>
<path d="M9.803 7.38C10.04 6.395 10.115 6 10.115 6H2.669C0.765 6 0.493 7.24 0.312 7.99C0.0749998 8.971 0 9.371 0 9.371H7.447C9.35 9.371 9.622 8.131 9.803 7.38Z" fill="white"/>
</svg>
