<svg width="16" height="17" viewBox="0 0 16 17" fill="none" xmlns="http://www.w3.org/2000/svg">
<path d="M5.3 7.202C4.7421 7.19914 4.18511 7.24734 3.636 7.346C4.088 3.166 7.572 0 11.72 0C14.26 0 16 1.244 16 3.818C16 6.393 13.911 7.637 10.864 7.637C8.614 7.637 7.55 7.203 5.3 7.203V7.202ZM5.136 8.727C2.089 8.727 0 9.972 0 12.546C0 15.12 1.74 16.364 4.28 16.364C8.428 16.364 11.912 13.199 12.364 9.018C11.8149 9.11666 11.2579 9.16486 10.7 9.162C8.45 9.162 7.385 8.727 5.136 8.727Z" fill="white"/>
</svg>
