<svg width="20" height="18" viewBox="0 0 20 18" fill="none" xmlns="http://www.w3.org/2000/svg">
<path fill-rule="evenodd" clip-rule="evenodd" d="M11.622 9.564V9.562C11.512 9.57 10.945 9.604 9.68 9.604C8.67 9.604 7.959 9.574 7.709 9.562V9.565C3.821 9.394 0.919 8.717 0.919 7.907C0.919 7.098 3.821 6.421 7.709 6.247V8.891C7.963 8.909 8.691 8.952 9.697 8.952C10.904 8.952 11.509 8.902 11.622 8.892V6.249C15.502 6.422 18.397 7.099 18.397 7.907C18.397 8.717 15.502 9.392 11.622 9.564ZM11.622 5.974V3.608H17.036V0H2.295V3.608H7.709V5.973C3.309 6.175 0 7.047 0 8.091C0 9.135 3.309 10.006 7.709 10.209V17.791H11.622V10.207C16.015 10.005 19.316 9.134 19.316 8.091C19.316 7.048 16.015 6.177 11.622 5.974Z" fill="white"/>
</svg>
